<?xml version="1.0" standalone="no"?>
<!DOCTYPE svg PUBLIC "-//W3C//DTD SVG 20010904//EN"
 "http://www.w3.org/TR/2001/REC-SVG-20010904/DTD/svg10.dtd">
<svg version="1.0" xmlns="http://www.w3.org/2000/svg"
 width="486.000000pt" height="456.000000pt" viewBox="0 0 486.000000 456.000000"
 preserveAspectRatio="xMidYMid meet">
<metadata>
Created by potrace 1.16, written by Peter Selinger 2001-2019
</metadata>
<g transform="translate(0.000000,456.000000) scale(0.100000,-0.100000)"
fill="#000000" stroke="none">
<path d="M1089 3183 c-57 -30 -92 -71 -109 -132 -13 -48 -13 -376 1 -424 13
-46 67 -109 113 -131 74 -35 188 -14 243 46 47 50 53 84 53 303 0 231 -5 252
-74 313 -66 58 -145 66 -227 25z"/>
<path d="M3606 3195 c-47 -16 -91 -57 -117 -107 -17 -33 -19 -60 -19 -243 0
-219 6 -253 53 -303 54 -58 164 -80 240 -49 44 19 103 87 116 134 14 48 14
376 1 424 -17 61 -52 102 -109 132 -60 30 -106 33 -165 12z"/>
<path d="M983 2070 c-42 -25 -47 -48 -40 -184 16 -336 163 -672 405 -927 214
-226 476 -373 782 -440 150 -33 447 -33 597 -1 526 114 950 491 1117 994 48
143 67 244 73 381 4 89 2 124 -8 143 -30 57 51 54 -1481 54 -1387 0 -1414 0
-1445 -20z"/>
</g>
</svg>
