<?xml version="1.0" standalone="no"?>
<!DOCTYPE svg PUBLIC "-//W3C//DTD SVG 20010904//EN"
 "http://www.w3.org/TR/2001/REC-SVG-20010904/DTD/svg10.dtd">
<svg version="1.0" xmlns="http://www.w3.org/2000/svg"
 width="2000.000000pt" height="1333.000000pt" viewBox="0 0 2000.000000 1333.000000"
 preserveAspectRatio="xMidYMid meet">
<metadata>
Created by potrace 1.16, written by Peter Selinger 2001-2019
</metadata>
<g transform="translate(0.000000,1333.000000) scale(0.100000,-0.100000)"
fill="#000000" stroke="none">
<path d="M2585 13135 c-88 -19 -153 -48 -263 -113 -97 -59 -159 -94 -241 -138
-24 -13 -49 -28 -55 -33 -6 -5 -64 -32 -129 -61 -207 -91 -425 -144 -642 -155
-177 -8 -248 -21 -324 -56 -66 -31 -190 -102 -288 -166 -63 -41 -146 -73 -190
-73 -18 0 -33 -5 -33 -11 0 -7 -7 -8 -17 -3 -19 8 -117 18 -295 30 l-108 7 0
-901 0 -901 33 -6 c34 -7 77 -58 77 -92 0 -15 2 -16 10 -3 7 12 10 11 16 -5 4
-11 21 -33 38 -49 17 -16 31 -34 31 -40 0 -6 10 -15 21 -20 12 -6 29 -23 39
-38 9 -16 20 -26 25 -23 5 3 14 -1 22 -8 16 -16 160 -87 176 -87 7 0 20 -4 30
-10 33 -19 172 -48 178 -38 4 7 10 4 16 -6 7 -12 14 -14 28 -6 24 13 40 13 20
0 -10 -6 6 -9 53 -7 37 1 67 -1 67 -5 0 -4 23 -5 51 -2 29 3 48 1 45 -5 -7
-10 6 -7 174 39 195 53 341 89 445 111 108 21 308 40 377 34 40 -3 190 -18
213 -20 27 -4 191 -60 532 -184 48 -17 85 -26 88 -20 4 5 11 7 16 3 5 -3 17 0
25 7 8 6 17 9 21 5 3 -3 17 1 29 9 12 8 41 17 63 21 22 3 42 12 45 19 2 7 22
15 45 19 24 3 53 18 73 36 19 18 39 28 49 25 10 -3 19 1 23 11 4 9 9 14 12 11
9 -9 44 25 37 36 -3 6 -1 7 5 3 6 -3 16 3 22 14 6 11 17 20 25 20 7 0 20 6 27
13 7 6 26 18 41 26 15 8 26 20 23 27 -3 7 2 10 15 7 11 -3 19 0 19 6 0 7 -4 9
-10 6 -5 -3 -10 1 -10 10 0 11 6 15 19 10 13 -4 30 7 60 40 22 24 41 42 41 38
0 -3 8 4 19 15 10 12 23 22 30 22 6 0 11 7 11 15 0 8 16 29 35 46 19 18 33 34
31 36 -2 2 11 21 29 41 19 20 32 39 29 43 -2 5 9 18 26 30 16 13 32 31 36 41
3 10 12 18 21 18 10 0 14 6 10 19 -3 11 7 32 24 52 17 20 29 46 29 63 0 21 4
27 15 22 10 -3 15 -1 13 7 -1 6 5 26 14 42 8 17 13 36 11 43 -3 6 0 12 6 12 6
0 10 3 9 8 0 4 1 14 4 22 24 67 42 164 38 210 -2 19 -3 70 -4 113 0 42 -4 77
-9 77 -5 0 -6 9 -2 19 3 11 2 22 -4 25 -5 3 -9 22 -9 42 0 20 -5 40 -11 44 -7
3 -9 14 -6 22 4 9 -1 30 -10 47 -8 17 -13 31 -9 31 3 0 -3 16 -15 36 -12 19
-21 41 -21 49 0 7 -7 15 -15 19 -8 3 -15 17 -15 31 0 14 -4 25 -10 25 -5 0
-10 7 -10 15 0 8 -4 15 -10 15 -5 0 -10 7 -10 15 0 8 -5 15 -12 15 -6 0 -8 3
-5 6 4 4 -7 22 -23 41 -17 18 -30 40 -30 47 0 7 -11 18 -24 26 -18 9 -33 38
-61 119 -21 58 -48 122 -60 142 -22 33 -136 172 -161 194 -32 29 -117 153
-163 241 -86 160 -116 199 -189 248 -175 115 -341 160 -477 131z"/>
<path d="M8616 11896 c6 -45 2 -63 -20 -112 -50 -108 -89 -145 -210 -193 -33
-14 -65 -24 -73 -24 -7 0 -13 -4 -13 -8 0 -4 -10 -11 -22 -15 -36 -11 -98 -71
-166 -161 -35 -46 -67 -81 -73 -78 -5 4 -8 2 -7 -3 5 -15 -79 -99 -125 -126
-40 -23 -179 -75 -240 -90 -21 -5 -27 -4 -21 5 4 8 3 9 -5 5 -6 -4 -9 -11 -6
-15 6 -11 -112 -44 -127 -35 -7 4 -8 3 -4 -4 4 -7 -4 -14 -21 -18 -15 -4 -32
-10 -38 -14 -5 -4 -20 -6 -32 -5 -13 1 -30 -7 -40 -17 -9 -10 -21 -18 -27 -18
-6 0 -33 -11 -60 -25 -27 -13 -54 -21 -60 -18 -6 3 -8 3 -4 -1 4 -5 -28 -34
-70 -67 -42 -32 -108 -88 -147 -124 -67 -63 -136 -110 -217 -147 -21 -10 -38
-13 -38 -8 0 5 -7 7 -15 4 -8 -4 -13 -9 -10 -13 11 -19 -226 -73 -320 -73 -11
0 -14 -2 -7 -5 6 -3 12 -13 12 -24 0 -10 5 -19 11 -19 5 0 7 -4 4 -10 -3 -5
-1 -10 6 -10 7 0 10 -13 7 -35 -4 -36 7 -48 16 -17 3 9 4 5 2 -10 -2 -19 1
-28 10 -28 8 0 28 -12 45 -27 17 -16 36 -27 41 -25 5 1 12 -6 15 -17 3 -13 11
-17 24 -14 15 4 18 2 12 -13 -5 -14 -3 -16 12 -10 11 4 22 1 27 -6 8 -11 10
-11 15 0 4 10 8 10 19 1 7 -6 21 -8 30 -5 12 4 15 2 10 -9 -7 -18 5 -20 23 -2
10 10 15 9 24 -3 13 -16 51 -24 41 -9 -7 12 -1 11 32 -1 24 -9 25 -9 14 5 -10
13 -9 15 9 15 11 0 21 -4 21 -10 0 -5 7 -10 15 -10 8 0 15 5 15 11 0 5 5 7 10
4 6 -3 14 4 19 17 6 13 10 17 10 9 1 -7 7 -11 16 -7 10 4 15 -1 15 -15 0 -20
0 -20 22 1 12 11 25 20 30 20 4 0 8 7 8 15 0 17 16 20 25 5 10 -16 23 -12 30
9 4 13 12 17 27 13 14 -3 19 -1 14 6 -4 7 -1 12 10 12 13 0 14 3 5 14 -8 9 -8
16 -2 20 5 4 12 2 16 -4 9 -14 25 -12 23 3 -2 6 3 11 10 9 6 -1 12 3 12 9 0 5
5 7 12 3 7 -5 9 -2 5 8 -4 12 2 18 21 23 15 4 30 12 34 18 4 7 12 13 18 13 5
1 15 2 20 3 6 0 10 7 10 15 0 8 14 19 30 25 18 6 30 17 31 28 0 12 2 13 6 5 4
-9 18 0 44 28 26 28 39 36 39 25 0 -10 4 -13 13 -8 12 8 17 9 37 12 6 0 10 8
10 16 0 8 5 15 10 15 6 0 10 -5 10 -12 0 -6 9 -1 20 12 11 13 20 20 20 16 0
-4 6 -2 13 4 6 6 29 21 49 35 35 22 39 23 54 7 15 -15 16 -15 10 6 -5 16 -4
21 6 17 8 -3 23 3 35 14 13 12 23 16 25 9 3 -7 9 -6 18 3 8 8 24 14 35 14 11
-1 28 8 37 18 17 18 18 19 24 2 6 -15 9 -15 20 6 l13 24 1 -25 c1 -14 4 -19 7
-12 2 6 11 12 19 12 8 0 14 7 14 15 0 17 30 17 42 0 5 -6 8 -5 8 3 0 6 8 12
17 12 9 0 14 3 10 6 -3 4 1 14 10 23 12 11 18 12 20 4 5 -15 43 5 43 23 0 6 9
21 20 34 11 13 20 18 20 12 0 -6 -4 -14 -10 -17 -5 -3 -9 -14 -9 -23 1 -15 2
-15 6 1 3 10 12 17 21 15 10 -2 29 9 44 24 15 16 31 28 36 28 5 0 14 10 20 23
8 17 11 18 11 5 1 -23 15 -23 32 -1 12 15 12 16 -6 10 -17 -6 -18 -5 -4 5 9 7
14 19 11 27 -3 8 0 11 6 7 16 -10 44 5 38 20 -5 12 4 18 24 16 3 0 7 10 8 24
2 28 38 69 45 51 3 -8 12 -4 26 11 12 12 20 26 17 30 -7 12 27 39 42 34 7 -2
12 2 12 8 0 8 10 11 25 8 19 -4 23 -2 15 7 -8 9 -1 17 26 30 30 14 38 15 46 4
7 -10 8 -8 5 9 -4 19 -1 22 24 22 19 0 32 7 40 22 8 14 14 18 17 10 7 -21 20
-13 14 10 -3 14 -2 19 6 14 7 -4 12 -2 12 3 0 6 8 11 18 11 14 0 15 2 2 10
-12 8 -11 10 7 10 12 0 25 5 28 10 3 6 1 10 -4 10 -12 0 6 38 26 55 7 5 14 31
16 58 2 26 7 50 11 54 12 12 6 22 -9 17 -8 -4 -15 -1 -15 5 0 6 4 11 9 11 13
0 10 49 -4 76 -6 13 -14 22 -16 19 -3 -2 -5 5 -6 15 -1 11 4 20 10 21 7 0 2 4
-10 9 -13 5 -23 16 -23 24 0 8 -5 16 -10 18 -6 2 -12 13 -13 26 0 12 -7 22
-13 22 -7 0 -14 10 -18 23 -3 13 -17 30 -31 37 -18 9 -25 20 -22 32 6 20 -9
25 -16 6 -4 -8 -8 -4 -12 10 -4 12 -15 22 -26 22 -12 0 -19 7 -19 20 0 11 -5
20 -10 20 -6 0 -8 -20 -4 -54z"/>
<path d="M15117 11403 c-14 -50 -17 -73 -9 -73 5 0 14 10 21 23 l11 22 -6 -24
c-5 -18 -3 -22 7 -17 8 4 6 1 -3 -7 -10 -8 -18 -22 -18 -31 0 -10 -4 -15 -10
-11 -5 3 -7 12 -3 20 3 11 1 13 -10 9 -8 -3 -17 -16 -20 -30 -5 -26 7 -42 18
-24 3 5 11 10 17 10 6 0 4 -8 -5 -18 -19 -20 -5 -45 19 -35 8 3 14 0 14 -6 0
-6 -5 -11 -10 -11 -6 0 -8 -11 -4 -27 5 -20 4 -25 -7 -21 -11 4 -13 -4 -10
-41 2 -25 6 -40 8 -33 3 6 9 12 14 12 4 0 5 -7 2 -17 -4 -11 -3 -14 5 -9 16
10 15 -6 0 -23 -11 -11 -10 -12 1 -6 11 6 13 4 8 -9 -4 -10 -1 -19 8 -22 8 -4
15 -13 15 -21 0 -8 -4 -11 -10 -8 -6 3 -10 -4 -11 -17 0 -20 -1 -21 -8 -5 -6
17 -9 17 -19 4 -10 -12 -9 -16 4 -21 10 -4 14 -12 10 -22 -5 -14 -4 -15 9 -4
8 7 15 9 15 4 0 -17 -15 -31 -37 -38 -13 -4 -23 -12 -23 -17 0 -14 41 9 63 35
18 20 19 20 13 1 -6 -20 -6 -20 9 -1 16 22 20 40 6 32 -5 -3 -11 3 -14 15 -4
16 -2 19 13 14 11 -3 18 -1 17 7 -1 30 3 51 10 45 9 -9 10 -67 1 -67 -4 0 -10
-16 -14 -35 -3 -19 -12 -35 -20 -35 -7 0 -16 -5 -20 -11 -4 -8 1 -9 16 -4 14
4 25 3 30 -5 5 -8 9 -7 13 5 5 10 3 14 -5 9 -7 -5 -8 -3 -3 5 4 7 11 9 15 4
13 -15 20 -62 10 -68 -6 -4 -8 -11 -4 -16 8 -14 24 -1 35 29 8 21 12 23 19 12
6 -8 9 -24 9 -35 l0 -20 -9 20 c-5 11 -9 15 -9 8 -1 -6 -4 -19 -8 -29 -4 -11
-3 -15 5 -10 6 3 13 2 17 -4 3 -5 2 -10 -3 -10 -5 0 -12 -9 -15 -20 -4 -17 -1
-19 21 -14 15 3 33 7 40 10 16 5 15 -4 -3 -23 -8 -8 -12 -19 -9 -25 4 -7 9 -7
13 0 3 5 14 -1 24 -14 15 -21 16 -24 2 -24 -8 0 -16 -4 -16 -10 -1 -5 -2 -14
-3 -19 0 -5 -4 -13 -8 -17 -15 -14 -8 -42 12 -47 14 -4 20 0 20 11 1 15 2 15
15 -1 13 -18 14 -18 24 1 6 12 8 28 5 36 -3 9 -1 16 5 16 10 0 16 -28 11 -60
-1 -8 -9 -23 -17 -32 -10 -11 -12 -18 -5 -18 7 0 15 0 20 0 4 0 8 5 8 10 1 6
2 15 3 20 0 6 5 10 10 10 5 0 7 -10 3 -22 -3 -14 -2 -19 6 -14 7 4 12 18 12
32 0 13 4 24 8 24 10 0 9 -41 -1 -57 -9 -14 1 -43 16 -43 8 0 8 -3 0 -11 -13
-13 -33 -4 -33 17 0 21 -18 17 -31 -8 -11 -21 -11 -22 4 -10 13 11 18 9 34
-15 9 -15 21 -31 26 -34 5 -3 8 -10 7 -15 -1 -5 3 -10 8 -12 5 -1 10 9 10 23
0 14 -6 25 -12 25 -6 0 -3 5 7 11 26 15 36 3 30 -39 l-5 -37 16 29 c9 16 15
35 12 42 -3 8 1 11 10 7 29 -11 14 -60 -38 -118 -16 -16 -28 -37 -28 -45 0 -9
9 -3 24 15 13 17 28 27 32 23 4 -5 2 -8 -4 -8 -16 0 -45 -58 -47 -95 l-2 -31
26 24 c14 13 26 29 26 35 1 7 5 20 9 30 7 14 11 15 22 6 16 -13 19 -39 5 -39
-5 0 -12 6 -14 13 -4 9 -6 9 -6 0 -1 -6 4 -15 9 -18 7 -4 3 -19 -10 -41 -12
-18 -19 -38 -16 -43 4 -5 2 -12 -4 -16 -5 -3 -10 -1 -10 6 0 7 -3 9 -7 6 -3
-4 -14 0 -24 9 -15 14 -17 14 -15 -2 0 -9 -5 -19 -12 -21 -8 -3 -10 1 -5 14 6
16 5 16 -10 4 -9 -7 -17 -20 -17 -27 0 -8 -6 -14 -14 -14 -17 0 -31 -18 -22
-27 3 -3 13 0 22 7 13 12 17 11 25 -1 4 -8 6 -23 3 -34 -5 -17 -4 -18 7 -7 14
13 16 17 18 55 1 16 4 19 10 8 7 -11 11 -10 19 5 6 10 14 15 18 11 4 -4 2 -13
-4 -19 -7 -7 -12 -17 -12 -23 0 -5 7 -1 15 9 14 18 15 18 15 2 0 -9 -6 -24
-14 -32 -18 -17 -30 -18 -20 -1 5 8 3 8 -9 -2 -9 -7 -14 -18 -11 -23 3 -5 -1
-17 -10 -27 -14 -16 -15 -20 -2 -30 12 -10 13 -8 9 10 -5 18 -3 21 11 16 14
-6 16 -3 11 13 -5 15 -3 18 9 14 10 -4 16 -1 16 7 0 8 7 23 16 34 12 16 16 17
23 6 7 -10 10 -10 16 -1 8 13 -11 30 -32 30 -20 0 -15 18 8 31 19 10 20 9 14
-13 -8 -23 -7 -23 13 -5 16 15 20 28 17 63 -1 25 0 43 3 40 3 -3 11 -1 18 5 7
6 14 6 18 1 3 -6 -1 -15 -9 -22 -19 -16 -20 -44 -1 -37 8 3 17 -1 20 -9 9 -23
7 -36 -3 -30 -5 4 -5 -10 -1 -31 5 -20 7 -41 4 -45 -3 -4 0 -8 5 -8 6 0 11 5
11 10 0 6 9 10 20 10 11 0 20 -5 20 -11 0 -5 -4 -7 -10 -4 -5 3 -10 -1 -10 -9
0 -10 -9 -16 -25 -16 -16 0 -25 -6 -25 -16 0 -8 -4 -13 -10 -9 -5 3 -7 12 -4
19 3 7 -2 16 -10 19 -10 4 -13 1 -9 -9 3 -8 -2 -25 -11 -39 -18 -27 -14 -45
10 -45 20 0 17 20 -3 21 -11 0 -5 6 15 15 17 8 32 19 32 25 0 6 6 9 13 6 7 -3
21 1 32 9 12 9 22 10 30 4 25 -21 63 55 39 78 -20 18 -25 15 -20 -13 3 -14 0
-25 -5 -25 -5 0 -9 6 -9 14 0 8 -6 16 -12 19 -10 3 -9 8 2 22 14 17 13 18 -2
13 -15 -6 -15 -5 0 23 17 28 32 38 32 20 0 -5 -5 -11 -12 -13 -17 -6 -2 -38
17 -38 9 0 13 5 10 10 -4 6 -11 7 -17 4 -6 -4 -5 3 2 16 14 27 21 21 22 -19 1
-23 5 -30 15 -27 16 6 16 5 3 -29 -7 -17 -7 -24 0 -20 13 8 43 -22 35 -35 -3
-5 -2 -10 4 -10 5 0 13 9 16 20 3 11 13 20 20 20 24 0 26 -18 3 -39 -12 -12
-17 -21 -11 -21 6 0 19 -3 28 -6 12 -5 16 -2 13 12 -2 11 3 19 12 19 24 2 71
-25 64 -36 -3 -6 -9 -8 -12 -5 -3 3 -13 -1 -23 -10 -11 -10 -19 -12 -24 -5 -3
6 -11 11 -17 11 -7 0 -6 -6 2 -15 10 -12 10 -15 -3 -15 -9 0 -21 9 -27 19 -10
19 -50 25 -50 8 0 -5 9 -7 21 -4 13 3 19 1 16 -6 -2 -7 -12 -12 -22 -12 -10 0
-19 -8 -21 -17 -1 -11 3 -15 14 -11 12 5 14 2 9 -11 -4 -10 -7 -21 -7 -26 0
-4 -7 -11 -16 -14 -12 -4 -15 -2 -10 9 4 10 0 14 -14 12 -22 -4 -39 -17 -22
-17 19 0 2 -61 -30 -107 -30 -45 -52 -61 -24 -18 9 13 16 30 16 37 0 8 -5 6
-11 -4 -18 -32 -30 -19 -15 17 8 19 11 35 6 35 -4 0 -11 -13 -15 -30 -7 -31
-19 -39 -29 -17 -3 6 -4 3 -1 -9 7 -26 -50 -141 -60 -124 -5 8 -1 16 9 22 9 5
16 14 16 20 0 7 -6 6 -15 -2 -20 -17 -32 -5 -15 15 21 25 0 17 -31 -12 -16
-16 -29 -37 -29 -47 0 -15 -3 -17 -12 -8 -9 9 -15 7 -25 -6 -13 -15 -13 -15
-8 8 6 23 5 22 -17 -7 -13 -19 -29 -31 -37 -28 -17 7 -46 -23 -55 -56 -3 -13
-3 -19 0 -12 3 7 13 9 22 6 14 -4 14 -3 3 5 -12 9 -12 13 2 26 17 18 32 22 22
6 -3 -6 1 -7 9 -4 8 3 18 14 21 25 4 10 11 19 17 19 5 0 8 -7 4 -15 -3 -8 -1
-15 4 -15 5 0 12 9 15 21 6 19 8 19 31 4 22 -14 25 -14 31 0 4 13 8 14 14 4 4
-7 3 -22 -2 -33 -10 -21 -10 -21 6 -1 14 17 17 18 25 5 14 -22 12 -30 -7 -30
-15 0 -16 -2 -3 -10 13 -9 13 -11 0 -20 -13 -8 -12 -10 3 -10 10 0 20 7 23 15
4 8 13 15 21 15 9 0 4 -9 -13 -25 -15 -14 -30 -25 -33 -25 -9 0 -37 34 -43 50
-3 9 -8 8 -21 -4 -9 -10 -17 -23 -17 -29 0 -8 4 -7 12 1 16 16 28 15 28 -3 0
-8 -5 -15 -11 -15 -5 0 -8 -4 -5 -9 3 -5 -3 -20 -14 -34 -11 -14 -20 -30 -20
-36 0 -5 -7 -14 -16 -19 -14 -8 -14 -11 7 -26 13 -9 20 -16 15 -16 -5 0 -3 -6
3 -13 6 -8 8 -17 4 -21 -4 -4 0 -4 9 -1 27 10 31 -14 6 -36 l-23 -20 28 17
c15 9 27 20 27 25 0 14 28 11 33 -3 2 -7 3 -5 2 4 -2 10 5 28 14 40 27 35 33
58 16 58 -8 0 -15 -8 -15 -18 0 -10 -7 -19 -15 -19 -8 0 -15 7 -15 14 0 8 5
11 10 8 6 -3 10 -1 10 5 0 7 10 20 22 30 19 15 20 20 9 34 -7 9 -21 16 -30 17
-12 0 -11 2 4 8 13 5 25 2 38 -10 11 -10 26 -15 36 -11 13 6 12 7 -6 10 -15 2
-20 8 -17 20 5 15 4 15 -5 2 -9 -13 -11 -13 -11 3 0 19 13 22 40 7 14 -8 25
-7 40 2 26 16 26 38 0 38 -12 0 -20 -7 -20 -17 0 -9 -3 -14 -6 -10 -3 3 -3 14
0 25 6 16 13 19 49 15 52 -6 57 -10 26 -21 -13 -5 -23 -12 -21 -16 6 -16 0
-24 -24 -30 -20 -5 -24 -10 -15 -19 14 -14 15 -30 1 -22 -5 3 -10 1 -10 -4 0
-19 17 -12 34 14 15 23 34 29 46 14 3 -4 14 -3 25 2 17 6 17 8 3 8 -11 1 -15
6 -12 16 5 11 10 12 24 3 10 -7 17 -15 15 -19 -5 -8 40 -3 54 5 6 4 7 -5 1
-25 -5 -18 -7 -36 -4 -41 9 -14 34 40 27 57 -3 8 0 15 7 15 6 0 9 -4 6 -9 -4
-5 0 -12 6 -14 9 -4 10 -8 2 -14 -6 -4 -17 -19 -23 -32 -16 -28 -1 -50 19 -26
9 11 9 15 1 15 -9 0 -9 5 0 21 8 16 14 18 22 10 9 -9 8 -14 -2 -20 -11 -7 -9
-11 7 -20 19 -10 20 -9 16 16 -3 15 -9 30 -15 33 -5 4 -2 15 7 26 13 16 15 16
10 2 -3 -11 0 -18 8 -18 10 0 12 -12 10 -41 -3 -37 -2 -40 18 -33 21 6 21 6 4
-11 -11 -11 -20 -14 -24 -8 -4 5 -17 15 -29 22 -20 10 -23 9 -23 -9 0 -12 -4
-18 -10 -15 -5 3 -10 -3 -10 -14 0 -35 -20 -23 -21 12 0 17 -3 26 -6 20 -2 -7
-10 -13 -16 -13 -13 0 -43 -40 -39 -53 1 -5 -2 -6 -8 -2 -5 3 -10 2 -10 -3 0
-6 -7 -13 -16 -16 -11 -4 -15 -2 -11 8 3 8 -1 13 -10 12 -9 0 -18 5 -20 12 -5
13 22 12 45 -1 8 -5 15 -2 19 10 3 10 8 21 9 24 2 3 -8 4 -21 1 -28 -5 -36 21
-11 31 11 4 13 1 10 -11 -4 -11 -3 -13 3 -6 12 17 53 28 53 14 0 -6 5 -8 10
-5 22 13 9 27 -20 22 -23 -5 -28 -3 -23 8 3 9 -1 15 -11 15 -9 0 -16 6 -17 13
0 6 -7 -1 -14 -18 -12 -25 -14 -27 -15 -9 0 31 -25 37 -26 8 -1 -13 2 -21 7
-18 12 7 11 -3 -6 -60 -8 -27 -13 -52 -10 -54 3 -3 5 0 5 6 0 9 5 9 19 0 21
-13 35 -48 20 -48 -5 0 -9 6 -9 13 -1 6 -7 -1 -15 -18 -7 -16 -14 -25 -14 -18
-1 7 -8 10 -17 6 -11 -4 -12 -8 -4 -13 9 -6 8 -14 -4 -33 -11 -16 -13 -27 -7
-32 6 -3 16 7 23 22 14 31 28 44 40 37 4 -3 5 3 1 12 -4 11 -2 15 4 11 12 -8
26 20 18 34 -4 5 0 6 8 3 9 -3 20 7 31 29 15 33 46 57 46 37 0 -6 -5 -10 -11
-10 -5 0 -8 -4 -5 -9 4 -5 2 -11 -3 -13 -5 -1 -13 -15 -16 -31 -6 -22 -4 -26
9 -21 9 3 16 13 16 21 0 8 7 21 15 29 13 14 15 14 15 0 0 -8 -4 -17 -9 -21 -5
-3 -8 -15 -6 -28 3 -16 -3 -26 -27 -40 -22 -12 -34 -15 -42 -7 -7 7 -7 10 0
10 6 0 11 7 11 15 0 18 -17 15 -28 -6 -26 -49 -37 -79 -26 -72 7 4 18 15 25
25 9 13 18 16 29 9 11 -6 22 -3 37 10 22 21 36 24 36 9 0 -5 -5 -10 -10 -10
-7 0 -7 -6 0 -20 8 -15 8 -20 -2 -20 -6 0 -3 -6 8 -14 23 -17 38 -1 23 26 -11
20 -4 38 14 37 9 0 9 -2 0 -6 -7 -2 -13 -9 -13 -15 0 -6 7 -8 15 -4 8 3 15 2
15 -3 0 -4 10 -13 23 -20 l22 -11 -22 6 c-27 6 -29 1 -8 -20 10 -9 11 -17 5
-21 -6 -3 -13 1 -16 10 -6 13 -8 12 -18 -7 -7 -14 -22 -24 -40 -26 -19 -2 -26
-8 -22 -18 8 -20 -1 -17 -77 25 -38 22 -63 41 -55 43 7 3 10 9 6 13 -4 4 -13
3 -21 -3 -15 -13 -147 45 -147 65 0 7 -5 13 -11 13 -5 0 -7 -4 -4 -10 6 -9
-29 3 -112 41 -45 20 -56 32 -25 27 20 -4 23 23 3 30 -8 3 -11 0 -7 -6 3 -6
-3 -14 -14 -17 -21 -7 -137 41 -126 52 2 2 15 -1 28 -8 23 -12 23 -12 5 8 -16
19 -16 21 -2 27 9 3 25 6 35 6 10 0 21 7 24 16 10 26 7 29 -9 8 -15 -19 -15
-19 -9 1 5 17 4 18 -5 3 -6 -9 -19 -15 -29 -14 -9 2 -26 -8 -38 -21 -13 -15
-26 -22 -37 -17 -23 8 -22 25 1 18 14 -5 14 -4 2 4 -9 7 -19 7 -26 2 -14 -12
-156 49 -147 63 4 6 1 7 -6 3 -17 -11 -134 45 -118 56 7 5 1 6 -14 2 -15 -3
-30 -1 -33 5 -4 6 -2 11 3 11 6 0 11 5 11 11 0 8 -4 8 -14 0 -15 -12 -30 -8
-118 31 -26 12 -45 25 -42 29 3 5 -1 6 -8 4 -13 -5 -67 19 -343 149 -49 24
-114 54 -142 66 -49 22 -58 31 -54 53 1 5 -3 6 -9 2 -6 -3 -7 -11 -4 -17 4 -6
3 -9 -2 -6 -5 2 -36 17 -69 33 -152 72 -362 178 -376 191 -8 8 -21 14 -28 14
-7 0 -29 11 -49 25 -20 14 -42 25 -48 25 -6 0 -28 13 -50 30 -42 31 -54 36
-54 20 0 -5 5 -10 11 -10 13 0 39 -25 39 -39 0 -5 5 -13 12 -17 7 -4 8 -3 4 4
-4 7 -3 12 2 12 5 0 12 -9 15 -21 3 -12 10 -18 17 -14 7 4 10 0 8 -11 -2 -13
3 -19 17 -19 12 -1 19 -7 17 -15 -2 -7 3 -17 10 -21 9 -6 8 -10 -5 -15 -9 -3
-17 -11 -17 -17 0 -7 4 -7 12 1 20 20 37 14 30 -10 -3 -13 -1 -19 5 -15 6 4
13 0 17 -8 3 -8 11 -12 19 -9 7 2 22 -4 32 -16 10 -11 24 -20 31 -20 7 0 16
-14 19 -31 5 -21 10 -27 15 -19 6 9 9 9 15 0 4 -7 1 -16 -6 -22 -12 -7 -11 -9
1 -7 33 3 42 -1 37 -20 -3 -13 0 -18 8 -15 7 3 16 1 19 -5 4 -6 13 -8 21 -4 9
3 15 -1 15 -10 0 -8 7 -20 15 -27 8 -7 12 -16 9 -21 -3 -5 2 -6 10 -3 11 4 16
0 16 -11 0 -12 6 -16 20 -12 15 4 20 1 18 -11 -2 -9 3 -17 10 -18 6 -1 17 -2
22 -3 6 0 10 -5 10 -11 0 -16 38 -50 56 -50 8 0 12 -4 9 -10 -3 -5 -1 -10 4
-10 6 0 12 -12 12 -27 1 -18 3 -22 6 -10 4 14 8 16 19 6 11 -9 14 -8 15 2 0 8
7 -2 14 -21 7 -19 14 -30 14 -23 1 8 13 5 36 -9 28 -16 34 -25 29 -40 -5 -18
-4 -18 16 -8 18 10 24 9 31 -1 5 -8 9 -18 9 -23 0 -5 7 -3 15 4 10 8 15 9 15
2 0 -6 14 -25 30 -42 20 -20 30 -26 30 -16 0 10 6 13 15 10 8 -4 15 -10 15
-16 0 -5 -4 -7 -9 -4 -5 4 -7 -3 -4 -13 4 -16 9 -18 29 -11 20 8 26 5 38 -18
9 -15 15 -21 16 -15 0 7 19 -5 42 -27 24 -22 48 -40 54 -40 7 0 14 -7 18 -15
3 -8 9 -14 13 -14 17 4 43 -14 44 -30 0 -12 2 -12 9 4 8 18 9 19 9 1 1 -12 6
-16 16 -12 9 3 15 0 15 -10 0 -8 5 -12 10 -9 6 3 10 -2 10 -12 0 -15 2 -16 10
-3 8 12 10 10 10 -10 l1 -25 14 25 14 25 1 -23 c0 -13 4 -21 9 -17 5 3 17 -2
25 -11 9 -9 23 -13 31 -10 9 3 15 0 15 -9 0 -13 12 -19 32 -16 4 0 12 -8 18
-19 6 -12 16 -20 23 -19 7 1 19 1 27 0 13 -1 13 -2 0 -11 -16 -10 -17 -10 26
-14 5 -1 26 -16 45 -34 18 -17 44 -32 55 -32 12 0 28 -10 36 -22 12 -18 18
-20 30 -11 11 10 16 8 26 -8 7 -11 17 -17 22 -14 5 3 15 -3 22 -15 7 -11 23
-20 35 -20 17 0 23 -6 23 -22 0 -19 2 -20 10 -8 6 10 10 11 10 3 0 -7 8 -13
18 -13 10 0 27 -7 39 -15 16 -12 23 -12 27 -2 3 9 8 7 16 -5 6 -9 17 -15 25
-12 10 4 13 0 10 -15 -3 -18 1 -21 30 -21 24 0 39 -7 53 -25 11 -14 27 -25 35
-25 8 0 28 -7 43 -15 16 -8 25 -15 20 -15 -5 0 -3 -7 4 -15 7 -9 19 -14 27
-11 7 3 26 0 41 -6 68 -28 92 -39 97 -48 4 -6 10 -8 15 -5 5 3 11 1 15 -5 4
-6 11 -8 16 -5 5 4 12 -1 15 -9 3 -9 10 -13 15 -10 5 3 9 -5 9 -16 0 -16 5
-20 15 -16 10 4 15 -1 16 -17 1 -17 3 -16 9 8 4 17 8 23 9 14 1 -19 88 -61 95
-45 2 6 5 4 5 -5 1 -9 8 -20 17 -23 10 -4 13 -2 8 7 -4 6 5 0 21 -15 15 -16
36 -28 46 -28 12 0 16 -5 13 -15 -7 -17 11 -21 21 -5 11 18 25 10 25 -15 0
-16 6 -25 16 -25 8 0 12 5 8 11 -3 6 5 3 20 -6 15 -10 29 -15 33 -12 7 8 33
-18 33 -32 0 -7 10 -9 24 -5 19 4 24 2 23 -11 -2 -13 7 -18 33 -21 19 -2 40
-10 45 -17 6 -6 22 -18 37 -26 21 -11 25 -18 17 -27 -15 -19 7 -27 24 -9 14
13 17 12 25 -13 6 -15 11 -21 11 -14 1 9 7 8 26 -4 14 -9 22 -21 18 -28 -4 -8
-3 -8 6 0 10 9 18 6 35 -10 13 -11 26 -28 29 -36 4 -12 6 -11 6 3 1 16 3 16
23 -3 12 -11 28 -20 35 -20 7 0 18 -9 25 -20 7 -11 22 -20 33 -20 17 0 18 -2
5 -10 -11 -8 -8 -9 13 -4 17 4 27 2 27 -5 0 -6 11 -17 25 -23 14 -6 25 -20 25
-31 0 -13 5 -17 15 -13 8 3 15 1 15 -4 0 -6 7 -10 15 -10 8 0 15 -5 15 -11 0
-5 4 -8 9 -4 6 3 14 -3 20 -12 9 -16 11 -15 11 7 1 17 4 20 8 10 14 -30 45
-70 54 -70 6 0 4 7 -3 17 -13 15 -12 15 9 2 12 -8 22 -23 22 -34 0 -17 2 -17
10 -5 8 13 10 12 10 -3 0 -13 6 -16 23 -12 16 4 25 0 32 -17 6 -13 18 -22 28
-21 12 0 16 -4 13 -13 -3 -8 0 -15 7 -15 7 -1 18 -2 25 -3 7 0 17 -8 22 -16 8
-13 10 -12 10 3 0 11 5 17 13 14 6 -2 11 -12 9 -22 -3 -12 1 -16 12 -12 8 3
18 1 22 -5 5 -7 2 -8 -7 -3 -8 5 0 -6 16 -23 17 -18 42 -39 58 -47 28 -14 36
-8 15 13 -7 7 -8 12 -2 12 5 0 18 -16 28 -35 19 -36 35 -45 37 -22 1 6 4 1 8
-13 4 -14 14 -25 24 -25 9 0 16 -4 14 -8 -3 -12 31 -29 43 -22 6 3 10 1 10 -5
0 -17 26 -40 45 -40 9 0 27 -11 40 -24 22 -23 35 -24 35 -4 0 5 -4 6 -10 3 -5
-3 -10 -1 -10 5 0 7 7 9 16 6 9 -3 18 -6 20 -6 2 0 4 -6 4 -13 0 -21 36 -49
64 -51 14 0 26 -7 26 -14 0 -9 10 -12 27 -10 22 2 30 -4 49 -37 12 -22 20 -44
16 -49 -3 -5 0 -6 6 -3 5 4 8 16 5 27 -6 24 22 28 31 4 8 -22 8 -26 -4 -19 -6
3 -7 -1 -4 -9 7 -19 9 -19 34 -6 15 8 17 7 12 -12 -3 -14 -1 -19 6 -14 7 4 12
2 12 -5 0 -9 3 -9 14 0 11 9 15 6 20 -14 4 -14 14 -25 23 -25 13 0 14 3 5 12
-7 7 -12 17 -12 23 0 5 13 -5 29 -22 16 -18 34 -33 41 -33 7 0 10 -7 6 -15 -3
-8 -1 -15 3 -15 5 0 12 6 14 13 4 7 6 6 6 -4 1 -18 31 -35 31 -19 0 6 5 10 10
10 6 0 10 -7 10 -15 0 -9 6 -15 13 -14 23 3 52 -3 40 -8 -7 -2 -13 -11 -13
-19 0 -9 4 -13 9 -9 5 3 12 1 16 -5 3 -5 16 -8 28 -6 26 4 52 -25 34 -36 -7
-4 -2 -6 11 -5 16 1 21 6 16 19 -9 30 10 20 25 -13 9 -21 16 -27 21 -19 6 10
16 7 39 -9 17 -12 31 -27 31 -32 0 -5 8 -8 18 -7 32 2 52 -2 52 -12 0 -5 -8
-7 -17 -3 -11 4 -15 2 -10 -3 12 -13 57 -12 57 1 0 5 4 4 9 -4 5 -8 17 -16 26
-17 9 -1 25 -10 34 -18 14 -13 20 -13 30 -3 10 9 15 8 25 -5 7 -10 22 -18 33
-18 11 0 23 -3 27 -7 4 -4 13 -8 19 -9 7 0 20 -2 30 -2 10 -1 15 -7 11 -13 -3
-6 1 -10 12 -9 35 4 42 0 53 -30 12 -35 26 -39 34 -9 7 25 43 22 41 -4 -1 -9
2 -14 7 -12 4 3 12 -3 18 -12 6 -10 11 -12 11 -5 0 15 42 16 58 0 7 -7 12 -9
12 -5 0 3 21 0 47 -8 25 -8 50 -12 54 -9 4 2 10 0 13 -5 3 -5 14 -7 24 -4 10
2 29 -6 43 -19 20 -19 34 -23 77 -21 28 1 52 -2 52 -6 0 -11 50 -9 68 3 8 5
18 4 25 -3 8 -8 8 -11 -1 -11 -7 0 -12 -4 -12 -10 0 -18 27 -10 43 13 l16 22
0 -21 c1 -19 6 -22 44 -19 23 1 50 -2 60 -7 12 -6 24 -5 35 4 11 9 14 10 8 1
-4 -7 -2 -13 3 -13 6 0 11 4 11 9 0 6 12 6 29 1 21 -6 33 -4 45 8 15 15 16 15
16 -1 0 -9 5 -17 10 -17 6 0 10 5 10 10 0 6 5 10 10 10 6 0 10 -7 10 -15 0
-18 14 -19 41 -5 15 8 23 7 35 -5 19 -18 26 -19 42 -3 9 9 12 9 12 -1 0 -11 3
-11 15 -1 8 7 12 16 9 21 -3 5 2 9 10 9 8 0 17 -8 19 -17 3 -10 5 1006 6 2257
l1 2275 -79 -120 c-43 -66 -117 -183 -165 -259 -135 -218 -191 -291 -336 -439
-295 -303 -492 -432 -826 -541 -300 -98 -360 -109 -574 -110 l-185 -1 -175 59
c-303 102 -483 187 -635 300 -44 33 -168 148 -275 256 -369 373 -396 391 -803
545 -334 125 -408 159 -542 249 -51 34 -232 196 -219 196 2 0 -4 9 -13 20 -21
25 -50 26 -56 3z m858 -1457 c0 -15 -5 -22 -12 -19 -7 3 -13 -2 -13 -11 0 -9
6 -16 13 -16 6 -1 0 -8 -15 -16 -16 -8 -28 -21 -28 -28 0 -7 -16 -21 -35 -32
-19 -10 -35 -24 -35 -30 0 -7 -3 -21 -6 -31 -3 -10 1 -8 9 6 14 23 15 23 25 5
10 -17 11 -16 12 9 0 15 3 27 8 28 4 0 17 2 30 5 17 3 22 -1 22 -16 0 -11 -5
-20 -11 -20 -6 0 -8 -9 -4 -20 4 -11 2 -20 -4 -20 -6 0 -8 -7 -4 -16 4 -10 14
-14 29 -11 27 5 30 -7 9 -43 -12 -22 -14 -23 -20 -8 -6 16 -9 16 -26 -6 -10
-13 -19 -30 -18 -38 0 -7 5 -3 11 10 6 12 15 22 20 22 5 0 2 -10 -6 -22 -22
-31 -20 -41 8 -34 20 5 23 3 18 -19 -2 -14 -6 -25 -8 -25 -9 0 -54 49 -54 59
0 6 -4 11 -8 11 -4 0 -8 -9 -8 -20 0 -11 4 -20 8 -20 5 0 4 -9 -2 -21 -13 -24
-4 -41 10 -19 7 10 10 11 10 3 0 -7 9 -13 20 -13 11 0 20 -5 20 -11 0 -5 -4
-7 -10 -4 -5 3 -18 1 -29 -5 -16 -8 -22 -7 -31 9 -5 11 -7 27 -4 35 4 11 0 16
-15 16 -14 0 -19 5 -14 16 5 13 7 13 14 2 6 -9 9 -9 9 -1 0 6 -5 15 -11 18 -7
5 -2 16 12 32 13 13 29 36 35 51 l12 27 1 -25 c1 -21 3 -22 11 -8 6 9 7 23 4
32 -7 17 -34 22 -34 6 0 -5 -5 -10 -11 -10 -8 0 -8 5 1 15 10 12 10 16 -1 19
-36 11 -48 3 -47 -32 1 -18 -3 -37 -9 -40 -5 -4 -13 -15 -16 -25 -4 -11 -16
-21 -27 -24 -12 -3 -19 -12 -18 -22 2 -12 -5 -16 -29 -15 -22 1 -33 -3 -33
-12 0 -21 -17 -17 -23 5 -3 12 1 22 9 25 8 3 14 10 14 15 0 6 -7 8 -15 5 -16
-6 -21 11 -7 20 5 3 7 19 4 36 -2 18 0 30 7 30 6 0 11 -14 11 -31 0 -17 4 -28
10 -24 6 3 10 0 10 -7 0 -10 2 -10 9 1 7 11 10 10 14 -5 4 -16 5 -15 6 4 0 13
5 21 10 18 10 -7 26 49 17 62 -9 14 12 36 36 37 17 0 24 8 29 33 4 21 3 32 -5
32 -6 0 2 11 18 23 21 18 28 29 24 45 -4 12 -2 25 3 28 5 3 9 -2 9 -10 0 -9 5
-16 10 -16 6 0 10 7 10 15 0 8 6 12 14 9 9 -3 21 5 31 20 10 14 18 26 19 26 0
0 1 -11 1 -24z"/>
<path d="M12265 11125 c4 -11 17 -58 28 -105 24 -105 28 -353 8 -510 -12 -94
-19 -118 -73 -230 -81 -167 -161 -295 -264 -421 -243 -295 -273 -336 -391
-530 -78 -127 -112 -217 -238 -619 -100 -321 -162 -439 -308 -583 -196 -193
-498 -385 -734 -466 -234 -80 -712 -112 -948 -63 -320 66 -552 136 -849 253
-141 56 -224 103 -367 206 -259 188 -468 317 -687 427 -208 104 -269 125 -607
207 -443 108 -608 155 -598 172 3 5 -3 6 -16 2 -12 -4 -21 -2 -21 4 0 6 -11
11 -24 11 -13 0 -29 7 -36 15 -9 10 -9 15 -1 15 6 0 11 -5 11 -12 0 -6 3 -8 7
-5 8 8 -31 47 -64 64 -22 11 -22 11 -7 -13 9 -13 21 -21 27 -17 6 3 7 1 3 -6
-5 -7 32 -73 92 -164 113 -173 191 -302 281 -465 35 -61 67 -110 72 -107 5 4
6 -1 3 -9 -5 -14 54 -141 63 -133 2 3 -8 26 -22 52 -14 26 -25 54 -25 60 0 11
28 29 40 25 2 -1 7 7 11 17 6 15 8 15 8 2 1 -9 8 -19 15 -22 10 -4 13 -1 9 9
-3 8 1 14 11 14 9 0 16 5 16 11 0 6 9 9 20 6 10 -3 20 -1 22 5 2 5 36 10 76
11 39 1 72 5 72 9 0 4 13 5 29 2 16 -4 32 -1 35 5 4 6 12 9 17 6 5 -4 9 -1 9
5 0 6 5 8 11 5 16 -10 59 -13 59 -4 0 4 8 8 18 8 19 0 157 10 215 15 20 2 35
0 31 -5 -5 -8 37 -14 78 -11 10 1 44 -5 75 -14 32 -9 82 -20 111 -24 29 -5 58
-13 65 -18 7 -5 28 -13 47 -17 19 -4 51 -15 70 -25 19 -10 37 -18 40 -18 3 0
18 -5 33 -11 16 -6 32 -11 37 -11 5 0 10 -4 12 -8 4 -10 85 -52 99 -52 6 0 23
-9 39 -20 15 -11 38 -21 51 -23 13 -2 25 -9 27 -15 2 -7 10 -12 18 -12 8 0 14
-4 14 -10 0 -5 8 -10 19 -10 10 0 24 -6 30 -13 6 -8 29 -20 51 -27 22 -7 48
-21 58 -30 10 -10 32 -25 48 -34 73 -41 100 -59 107 -72 4 -8 15 -14 23 -14 9
0 22 -6 29 -12 32 -29 43 -36 66 -43 25 -8 82 -45 87 -57 2 -5 10 -8 18 -8 8
0 17 -7 20 -15 4 -8 10 -12 15 -9 5 3 9 1 9 -4 0 -5 20 -15 45 -22 25 -7 45
-16 45 -20 0 -8 107 -62 130 -66 8 -2 16 -8 18 -13 2 -6 11 -11 20 -11 8 0 23
-6 31 -13 9 -7 34 -19 56 -26 37 -12 64 -23 158 -64 21 -9 44 -17 53 -17 8 0
25 -7 38 -15 13 -9 28 -15 32 -14 5 1 23 -4 39 -11 30 -12 87 -27 135 -34 14
-2 60 -13 103 -24 43 -12 103 -24 135 -27 61 -6 274 -18 307 -17 105 4 180 12
182 19 2 4 24 8 51 7 26 0 52 3 57 7 6 4 30 9 55 10 25 2 48 8 51 12 4 5 23
11 44 14 21 3 53 13 71 24 19 10 41 16 49 13 8 -4 15 -2 15 4 0 9 40 25 67 27
7 0 19 9 26 19 8 11 21 17 30 13 9 -3 18 0 21 9 3 8 12 14 21 14 8 0 15 4 15
8 0 5 16 14 35 22 19 8 35 17 35 22 0 4 5 8 10 8 6 0 19 9 30 20 11 11 27 20
35 20 8 0 15 4 15 9 0 5 8 8 18 7 9 0 16 5 14 12 -1 7 6 15 15 19 10 4 22 12
26 20 4 7 15 13 23 13 9 0 12 5 8 12 -4 7 -3 8 5 4 6 -4 25 7 44 26 19 18 61
59 95 91 34 32 62 60 62 63 0 2 16 19 35 37 19 17 35 35 35 40 0 8 8 18 40 56
8 9 24 35 35 57 10 21 26 50 35 64 9 14 22 45 29 69 7 24 23 67 36 95 21 49
38 100 50 158 3 15 11 33 18 40 6 7 13 28 15 46 3 37 34 133 68 210 13 29 24
61 24 72 0 10 4 21 9 25 5 3 12 19 16 35 4 17 11 30 16 30 5 0 9 9 9 20 0 11
3 20 8 20 4 0 13 15 20 33 7 17 17 39 22 47 5 8 17 31 27 50 9 19 20 37 24 40
4 3 17 26 29 53 12 26 28 47 36 47 8 0 13 3 13 8 -4 22 2 42 11 37 6 -3 10 -1
10 4 0 18 57 91 64 83 4 -3 4 1 1 10 -4 9 2 26 12 38 39 48 95 113 109 127 8
8 11 19 8 24 -3 6 3 13 14 16 11 2 23 12 26 21 13 34 37 72 47 72 5 0 9 6 9
14 0 8 11 27 24 43 12 15 21 34 19 41 -3 6 0 12 6 12 6 0 11 7 11 16 0 8 5 12
10 9 6 -3 10 3 10 14 0 12 5 21 10 21 6 0 10 7 10 15 0 9 11 32 23 53 13 20
29 54 36 75 7 20 16 37 20 37 9 0 45 108 44 131 -1 11 2 19 8 19 5 0 9 13 9
29 0 17 5 33 10 36 6 4 8 10 5 15 -3 5 -1 11 5 15 6 4 8 10 6 14 -3 4 7 43 22
87 25 71 27 92 26 209 -1 72 -6 142 -12 157 -6 15 -9 35 -6 43 4 8 1 22 -6 30
-6 8 -9 23 -5 35 3 11 2 20 -3 20 -9 0 -23 31 -26 55 -1 6 -7 14 -14 18 -7 5
-10 12 -7 16 2 5 -2 14 -10 21 -8 7 -15 17 -15 22 0 25 -103 152 -125 153 -5
1 -9 5 -9 10 1 6 -10 21 -24 35 -21 21 -24 22 -17 5z"/>
<path d="M10521 9753 c0 -10 4 -40 9 -68 12 -71 -6 -197 -36 -256 -29 -58
-116 -148 -187 -193 -83 -53 -517 -272 -577 -291 -30 -10 -157 -55 -281 -101
-199 -73 -240 -85 -350 -99 -125 -17 -218 -15 -359 6 -65 10 -148 47 -226 100
-41 28 -185 172 -260 259 -95 112 -199 208 -286 263 -34 21 -34 21 -34 -3 0
-22 12 -27 19 -7 3 6 6 3 6 -8 1 -15 3 -17 10 -6 6 10 11 1 17 -30 9 -52 8
-48 22 -79 l11 -25 -2 27 c-1 15 -5 24 -11 21 -5 -4 -6 -1 -2 6 8 12 21 7 21
-7 1 -4 7 -17 14 -30 7 -13 10 -30 7 -38 -3 -8 1 -14 9 -14 8 0 15 -6 15 -14
0 -7 8 -20 17 -27 10 -8 14 -9 10 -2 -4 6 -3 14 3 18 9 5 14 -15 13 -52 -1 -9
4 -10 18 -2 15 8 19 6 19 -6 0 -10 5 -13 11 -9 8 5 10 -3 7 -24 -2 -17 -1 -29
3 -26 4 2 11 -1 15 -7 5 -8 8 -8 14 1 5 8 9 5 13 -9 3 -12 1 -21 -5 -21 -5 0
-6 -5 -3 -10 4 -6 15 -8 25 -5 15 5 23 -2 36 -32 14 -34 17 -36 24 -18 5 11 9
14 9 6 1 -8 7 -11 17 -7 8 3 13 2 9 -3 -3 -5 1 -12 7 -15 7 -3 3 -3 -9 0 -13
3 -23 1 -23 -4 0 -5 9 -12 20 -15 12 -3 20 -14 20 -27 0 -18 4 -20 23 -14 12
4 25 12 29 18 6 8 8 8 8 -1 0 -6 -4 -14 -9 -17 -5 -3 -7 -15 -4 -26 5 -18 21
-25 46 -21 5 1 6 -3 2 -9 -3 -5 0 -10 8 -10 8 0 17 -10 20 -21 4 -15 11 -20
21 -16 12 5 16 0 16 -17 0 -13 8 -32 18 -44 14 -16 22 -18 36 -10 16 9 18 8
14 -10 -4 -12 0 -26 8 -33 8 -6 14 -8 14 -3 0 5 6 -2 13 -16 7 -14 20 -24 29
-24 10 1 14 -4 11 -12 -3 -8 5 -16 21 -20 14 -3 26 -10 26 -15 0 -5 7 -9 15
-9 8 0 15 -5 15 -11 0 -6 7 -8 16 -5 11 4 18 -1 21 -14 3 -11 14 -20 25 -20
13 0 17 -4 12 -12 -5 -8 0 -7 11 2 17 14 18 13 13 -7 -5 -20 -3 -21 12 -13 26
14 33 12 26 -6 -3 -8 -2 -13 3 -9 5 3 12 -1 14 -7 4 -10 8 -9 16 2 9 12 11 11
11 -7 0 -13 5 -23 10 -23 6 0 10 7 10 15 0 8 5 15 10 15 6 0 10 -6 9 -12 -3
-19 11 -48 23 -48 6 0 7 8 4 18 -5 13 -2 12 11 -4 13 -16 23 -20 38 -14 13 5
26 2 38 -8 11 -10 21 -12 25 -7 13 19 66 13 79 -9 7 -12 12 -16 13 -10 0 14
101 16 117 2 10 -8 13 -6 13 6 0 18 15 22 25 6 4 -7 13 -6 27 1 15 8 19 8 14
0 -12 -20 62 -13 74 7 11 16 11 16 6 0 -7 -22 22 -25 30 -3 4 8 14 15 24 15
10 0 25 6 33 14 15 15 57 11 57 -5 0 -5 5 -9 11 -9 6 0 8 9 4 23 -5 17 -4 19
4 7 10 -13 15 -8 12 12 0 4 6 5 14 2 18 -7 19 -21 3 -27 -7 -2 -1 -4 14 -3 14
0 24 4 21 9 -2 4 1 7 7 7 7 0 10 7 6 15 -4 13 -2 13 14 5 12 -7 21 -7 25 0 3
5 0 10 -7 10 -8 0 -5 5 5 11 13 8 31 8 58 1 39 -10 40 -9 46 19 3 16 10 29 15
29 5 0 7 -10 4 -22 -3 -13 -3 -17 0 -10 3 6 12 12 20 12 8 0 14 5 14 10 0 6 7
10 15 10 8 0 15 5 15 10 0 17 42 11 56 -7 12 -16 13 -16 8 -1 -3 9 0 27 6 39
12 21 13 21 23 4 9 -16 11 -15 24 11 7 16 11 21 8 12 -6 -24 8 -23 31 3 12 13
27 19 42 16 25 -5 52 15 52 39 0 8 5 14 11 14 6 0 9 -7 5 -15 -6 -18 -5 -18
28 -5 14 5 26 16 26 23 0 7 7 22 16 33 15 18 15 18 10 -5 -5 -23 -3 -22 25 9
28 30 31 31 43 15 10 -14 16 -15 34 -6 12 6 22 18 22 26 0 8 7 15 15 15 7 0
19 8 24 18 6 9 11 11 11 5 0 -7 7 -13 15 -13 18 0 20 16 3 24 -7 4 -2 4 11 2
29 -6 61 9 61 29 0 8 8 12 20 10 11 -2 22 0 25 6 4 5 15 9 26 9 11 0 17 5 14
10 -3 6 1 10 11 10 13 0 14 3 4 15 -10 13 -9 15 8 15 16 0 20 -4 15 -17 -6
-16 -5 -16 10 -5 9 8 21 29 27 48 13 40 29 37 23 -3 l-4 -28 16 28 c12 21 13
32 5 41 -8 11 -2 17 26 31 28 13 33 19 23 26 -8 5 -9 9 -3 9 7 0 11 6 10 13 0
6 4 12 9 12 6 0 9 -3 8 -7 -2 -5 2 -8 8 -8 6 0 9 6 6 13 -2 6 2 27 9 45 7 17
9 32 4 32 -4 0 -10 -6 -13 -12 -2 -7 -7 -11 -10 -8 -3 3 6 25 21 49 28 48 37
91 18 91 -6 0 -12 8 -12 19 0 11 5 17 13 14 7 -3 13 2 13 11 0 9 -7 16 -15 16
-14 0 -19 21 -18 83 0 9 -7 17 -14 17 -10 0 -12 7 -8 19 4 12 0 21 -11 25 -12
5 -15 14 -10 36 4 23 2 30 -10 30 -8 0 -13 4 -9 9 3 5 -4 13 -16 16 -12 4 -17
10 -12 14 20 13 21 38 2 50 -11 6 -24 9 -29 6 -18 -11 -11 17 8 31 15 12 14
13 -10 4 -27 -9 -40 2 -18 15 6 4 8 11 4 16 -4 6 -11 6 -19 -1 -10 -8 -15 -8
-21 1 -4 8 -3 9 4 5 8 -5 12 2 12 21 0 19 -3 24 -9 15 -6 -11 -13 -11 -37 0
-39 16 -40 18 -27 26 8 5 7 13 -4 27 -11 14 -14 15 -10 4 4 -13 1 -15 -14 -12
-10 3 -19 12 -19 19 0 8 -4 14 -10 14 -5 0 -10 -8 -9 -17z"/>
<path d="M14210 8974 c-61 -17 -183 -68 -345 -144 -169 -80 -229 -101 -306
-103 -38 -1 -67 -6 -66 -12 3 -14 -54 -14 -59 0 -9 22 -144 17 -144 -5 0 -6
11 -5 26 0 37 14 54 12 54 -7 0 -12 -3 -14 -11 -6 -17 17 -58 -8 -65 -39 -3
-16 -9 -28 -12 -28 -4 0 -16 -20 -26 -44 -11 -25 -24 -42 -29 -39 -4 3 0 14 9
25 12 12 15 22 8 26 -6 4 -14 20 -18 35 -6 26 -5 27 14 17 16 -8 20 -8 20 4 0
8 -6 17 -12 20 -7 3 1 3 17 -1 27 -5 28 -4 12 8 -17 14 -17 15 3 37 16 17 17
22 6 22 -8 0 -17 -9 -21 -19 -3 -11 -13 -22 -21 -25 -8 -3 -13 -2 -9 3 9 15
-6 40 -21 34 -17 -6 -18 -30 -1 -36 16 -6 -2 -39 -24 -43 -7 -1 -22 -5 -31 -9
-17 -7 -22 3 -21 42 1 7 -4 10 -10 6 -6 -4 -8 0 -4 11 4 11 3 15 -4 10 -6 -3
-9 -15 -6 -25 3 -11 0 -19 -7 -19 -17 0 -14 43 4 66 14 18 14 18 -5 3 -24 -19
-55 -14 -56 9 -1 10 -4 6 -8 -8 -6 -20 -3 -27 16 -33 18 -7 21 -12 13 -27 -7
-12 -7 -28 0 -44 7 -21 6 -26 -5 -26 -8 0 -15 6 -15 14 0 7 -7 20 -17 27 -15
13 -15 12 -5 -8 15 -28 15 -44 0 -40 -8 1 -13 -7 -12 -20 0 -18 -2 -20 -13
-11 -9 7 -17 8 -21 2 -11 -14 -33 -16 -31 -2 4 26 -14 79 -25 75 -6 -2 -10
-11 -8 -21 2 -9 -2 -16 -8 -16 -5 0 -10 8 -11 18 0 10 -3 12 -6 5 -7 -18 -23
-16 -23 2 0 10 -10 15 -30 15 -28 0 -36 11 -31 43 2 14 -14 7 -27 -13 -10 -17
-10 -20 5 -21 11 0 13 -3 6 -6 -7 -2 -13 -14 -13 -24 0 -11 5 -17 10 -14 6 3
10 0 10 -7 0 -10 2 -10 9 1 5 7 14 10 20 7 6 -4 11 -3 11 3 0 5 -6 12 -12 14
-8 3 -6 6 5 6 10 1 17 -6 17 -18 0 -15 6 -19 27 -18 20 1 30 -5 40 -23 7 -14
13 -20 13 -15 0 6 4 3 10 -5 5 -9 5 -19 -1 -26 -5 -6 -7 -19 -3 -28 4 -10 1
-16 -7 -16 -9 -1 -8 -4 4 -11 27 -16 20 -30 -9 -19 -26 10 -26 9 -21 -20 6
-26 2 -32 -23 -45 -33 -17 -48 -5 -24 20 12 12 19 13 30 4 22 -18 16 -1 -7 24
-12 12 -19 16 -15 10 9 -16 -10 -17 -20 -2 -3 6 -1 15 6 19 8 5 10 18 5 40 -5
25 -4 31 5 25 8 -5 11 -4 6 3 -3 5 0 13 6 15 7 3 0 4 -17 4 -19 -1 -30 3 -30
12 0 17 -25 28 -25 11 0 -6 5 -8 13 -4 7 5 6 0 -3 -11 -14 -17 -15 -17 -21 11
l-7 29 -1 -32 c0 -18 4 -33 9 -33 6 0 10 -5 10 -11 0 -6 -7 -8 -16 -5 -12 4
-15 2 -10 -9 19 -46 19 -50 6 -38 -7 7 -14 35 -14 62 -1 27 -5 53 -10 58 -5 4
-6 -4 -2 -19 8 -34 -13 -38 -32 -7 l-14 21 -15 -22 c-13 -19 -13 -24 -2 -31 9
-5 16 -3 19 6 4 12 7 12 17 -3 7 -12 8 -24 2 -33 -6 -10 -9 -10 -9 -1 0 6 -8
12 -17 11 -11 0 -13 -3 -5 -6 6 -2 10 -9 7 -13 -3 -5 -13 -6 -22 -3 -13 5 -15
2 -10 -11 4 -10 7 -20 7 -22 0 -2 5 -4 11 -4 5 0 7 5 4 10 -3 6 1 10 10 10 9
0 13 -5 10 -11 -4 -6 1 -17 11 -24 15 -11 17 -18 8 -31 -14 -24 -32 -29 -30
-8 0 10 -8 20 -19 23 -11 3 -20 12 -21 19 -1 6 -2 17 -2 22 -3 14 -42 13 -42
-2 0 -6 3 -8 7 -5 3 4 12 2 19 -4 15 -13 7 -39 -12 -39 -8 0 -14 -4 -14 -9 0
-5 -7 -17 -16 -25 -14 -15 -14 -16 3 -17 10 -1 24 -1 31 0 22 3 13 -15 -13
-27 -33 -15 -36 -15 -29 3 12 31 -17 14 -33 -20 -16 -34 -53 -49 -53 -22 0 22
12 28 28 14 13 -10 15 -8 9 13 -4 14 -7 31 -7 38 0 6 -5 12 -11 12 -5 0 -7 -5
-3 -12 4 -6 3 -8 -3 -5 -5 3 -8 49 -6 106 1 56 -2 101 -7 101 -17 0 -40 -32
-40 -56 0 -25 15 -33 23 -11 4 9 6 9 6 -1 1 -20 -26 -45 -32 -29 -3 6 -6 3 -6
-7 -1 -10 7 -25 17 -33 9 -8 11 -11 3 -7 -10 5 -11 1 -6 -17 4 -13 11 -28 16
-34 5 -5 9 -27 10 -50 1 -42 16 -104 18 -73 1 15 28 38 45 38 8 0 -6 -33 -21
-48 -19 -19 -16 -40 6 -52 23 -12 34 0 25 27 -3 10 1 7 9 -7 9 -14 19 -24 23
-22 4 1 9 -11 11 -28 1 -17 -2 -30 -8 -30 -6 0 -9 6 -6 13 2 6 -2 19 -11 26
-13 13 -14 12 -8 -13 4 -17 2 -34 -5 -42 -6 -7 -8 -22 -5 -31 5 -12 9 -14 14
-6 5 8 13 9 22 3 8 -6 10 -10 4 -10 -7 0 -15 -7 -18 -16 -3 -8 -2 -13 3 -10 5
3 12 -1 15 -10 4 -9 2 -13 -5 -8 -17 10 0 -16 41 -64 20 -22 42 -42 50 -44 8
-2 23 -13 33 -25 9 -12 41 -35 70 -51 46 -26 64 -30 162 -35 124 -6 201 -26
318 -82 91 -44 153 -53 236 -35 108 23 129 41 177 159 44 106 98 178 166 218
17 11 24 22 20 32 -5 14 -3 14 11 2 13 -11 17 -11 17 -1 0 8 3 11 6 7 11 -10
133 41 213 89 265 159 416 312 471 480 30 89 19 126 -62 199 -120 108 -202
133 -328 99z"/>
<path d="M5515 7940 c-4 -6 -15 -8 -25 -5 -10 3 -22 1 -25 -6 -6 -8 -10 -7
-16 2 -13 21 -11 -1 7 -78 13 -53 15 -94 9 -188 -3 -66 -8 -205 -10 -310 -5
-225 -11 -250 -101 -454 -53 -120 -83 -172 -151 -263 -47 -62 -130 -179 -185
-260 -119 -174 -155 -214 -283 -309 -177 -131 -303 -167 -550 -156 -188 8
-316 43 -700 190 -126 47 -221 76 -360 106 -362 80 -545 145 -741 262 -17 10
-34 16 -37 12 -4 -3 -7 -1 -7 5 0 7 -7 12 -15 12 -8 0 -15 5 -15 10 0 6 -7 10
-15 10 -8 0 -14 5 -13 11 2 6 -9 13 -24 16 -20 2 -30 -2 -38 -18 -7 -12 -18
-18 -26 -15 -8 3 -14 1 -14 -3 0 -5 -3 -16 -6 -25 -3 -9 -1 -16 5 -16 6 0 11
8 12 18 1 17 1 17 15 -28 5 -13 6 -13 14 0 7 11 10 12 10 2 0 -7 6 -10 12 -7
7 4 4 0 -6 -9 -10 -8 -24 -13 -30 -10 -6 3 -1 -3 12 -12 12 -9 22 -21 22 -26
0 -6 -7 -4 -17 3 -14 12 -16 12 -11 -1 7 -21 43 -19 42 2 -1 10 4 14 12 11 17
-6 18 -15 3 -30 -8 -8 -8 -17 0 -31 9 -16 7 -21 -7 -27 -16 -6 -16 -7 1 -16
14 -8 15 -14 7 -24 -6 -8 -19 -11 -28 -9 -12 4 -11 1 3 -7 25 -17 38 -18 48
-4 5 6 7 3 3 -7 -3 -10 -1 -18 3 -18 5 0 12 -7 15 -16 5 -14 4 -15 -9 -4 -14
12 -19 7 -16 -13 1 -5 -3 -5 -9 -2 -6 4 -9 13 -6 21 3 8 0 11 -10 7 -19 -7
-19 -8 22 -50 20 -20 31 -39 25 -41 -6 -2 -11 -13 -11 -24 0 -12 3 -19 6 -15
10 9 36 -21 29 -33 -3 -6 1 -18 10 -27 15 -15 16 -15 13 2 -4 25 19 30 27 6 3
-12 11 -21 16 -21 6 0 7 -5 4 -10 -5 -8 -11 -8 -20 0 -9 8 -14 8 -17 0 -2 -8
-11 -8 -32 0 -26 9 -27 9 -16 -5 7 -8 19 -15 26 -15 8 0 14 -4 14 -10 0 -14
-4 -13 -46 10 -42 24 -51 21 -33 -12 7 -14 14 -18 17 -10 6 20 22 14 32 -14
12 -32 4 -50 -16 -33 -20 17 -17 5 9 -34 23 -34 24 -34 55 -21 18 7 32 16 32
19 0 3 -9 1 -20 -5 -22 -12 -25 2 -5 27 14 17 35 -11 27 -39 -3 -14 -1 -19 6
-14 24 14 25 -25 2 -47 -13 -12 -20 -17 -16 -10 3 6 2 14 -3 17 -5 3 -11 0
-14 -8 -3 -8 -14 -12 -25 -9 -10 2 -26 -3 -36 -12 -14 -15 -16 -15 -16 -1 0 9
-4 16 -9 16 -5 0 -7 -9 -4 -21 4 -14 -1 -25 -16 -36 -17 -12 -20 -18 -10 -29
19 -23 2 -16 -22 9 -14 14 -20 16 -17 6 5 -12 -2 -15 -33 -15 -21 1 -39 4 -39
8 0 4 -8 5 -17 2 -15 -5 -15 -4 -3 5 8 5 11 13 8 17 -4 4 -21 -7 -37 -25 -16
-17 -32 -31 -35 -31 -8 0 -1 38 9 47 4 5 5 2 1 -4 -5 -9 -2 -11 7 -7 9 3 13
13 10 25 -5 19 -6 19 -27 2 -15 -13 -17 -13 -8 -2 6 9 10 18 7 21 -3 3 1 18 9
33 l15 28 7 -38 c7 -37 7 -37 45 -31 24 4 39 2 39 -4 0 -5 10 -10 23 -10 17 0
19 2 8 9 -12 8 -12 13 3 35 16 25 16 26 -8 26 -13 0 -32 8 -43 18 -10 9 -14
13 -7 9 7 -4 15 -4 18 2 4 5 2 12 -3 15 -10 6 -9 20 4 49 4 10 6 19 4 21 -40
30 -72 47 -77 41 -4 -3 0 -10 8 -15 8 -5 24 -16 35 -25 19 -16 19 -16 -8 -12
-20 3 -25 1 -18 -6 14 -14 14 -37 1 -37 -5 0 -10 7 -10 15 0 8 -7 15 -15 15
-8 0 -15 5 -15 11 0 5 -4 7 -10 4 -5 -3 -10 1 -10 9 0 9 7 16 15 16 9 0 12 6
9 15 -4 8 -2 15 4 15 5 0 12 7 15 14 4 10 1 13 -9 9 -7 -3 -14 0 -14 7 0 9 11
10 38 6 37 -6 37 -6 12 10 -14 8 -17 13 -8 10 18 -5 33 20 18 29 -6 4 -10 1
-10 -4 0 -6 -10 -11 -22 -11 -15 0 -19 3 -11 8 14 9 6 52 -9 52 -6 0 -8 -8 -6
-18 3 -10 -1 -23 -9 -30 -7 -7 -10 -18 -7 -24 4 -7 2 -8 -4 -4 -7 4 -12 3 -12
-3 0 -5 5 -13 10 -16 6 -3 10 -11 10 -18 0 -8 -3 -8 -12 1 -20 20 -31 14 -24
-13 4 -14 2 -25 -4 -25 -5 0 -10 -7 -10 -16 0 -12 -5 -11 -20 7 -10 13 -19 18
-20 12 0 -7 -10 -13 -22 -13 -19 0 -20 2 -8 10 11 7 12 10 2 10 -8 0 -11 7 -8
18 3 9 1 24 -4 31 -7 12 -11 10 -21 -11 l-12 -27 -17 21 -17 21 -32 -22 c-17
-12 -29 -27 -26 -32 4 -5 -1 -9 -9 -9 -9 0 -13 6 -10 14 3 7 -2 16 -10 19 -10
4 -13 1 -9 -9 3 -9 -2 -14 -13 -15 -11 -1 -26 -2 -34 -3 -8 0 -17 -14 -20 -31
-5 -27 -30 -49 -30 -25 0 6 5 10 10 10 6 0 10 14 10 30 0 24 -4 30 -21 30 -16
0 -19 4 -15 17 4 9 1 20 -6 25 -9 7 -4 8 15 5 15 -2 30 0 33 4 3 5 -6 9 -19 9
-20 0 -23 4 -19 30 3 18 0 30 -7 30 -11 0 -14 -18 -13 -73 0 -15 -3 -25 -8
-22 -4 3 -10 2 -13 -2 -2 -5 -2 -2 -1 5 2 6 -1 12 -6 12 -6 0 -10 -7 -10 -15
0 -8 -9 -15 -20 -15 -30 0 -24 -18 7 -22 17 -2 29 -10 31 -21 3 -13 -2 -17
-14 -15 -11 2 -23 -6 -30 -20 -6 -13 -13 -19 -16 -12 -5 15 -38 2 -38 -16 0
-8 5 -14 10 -14 6 0 10 4 10 10 0 5 7 7 15 4 12 -5 13 -9 4 -20 -9 -12 -9 -13
3 -9 12 5 14 0 11 -19 -3 -14 -12 -26 -20 -26 -8 0 -11 -5 -7 -12 5 -7 3 -8
-6 -3 -7 4 -16 2 -21 -6 -11 -18 -21 -6 -13 15 3 9 14 16 24 16 11 0 22 5 26
12 5 8 2 9 -9 5 -11 -4 -17 -1 -17 8 0 18 -12 19 -29 3 -11 -11 -12 -9 -4 7 5
11 8 26 7 33 -1 6 -2 17 -3 22 0 6 -9 10 -18 9 -11 0 -13 -3 -5 -6 20 -8 14
-22 -8 -16 -10 3 -18 10 -17 16 1 6 -6 13 -16 15 -19 4 -20 -16 -2 -31 6 -5 2
-6 -8 -3 -10 3 -23 6 -28 6 -5 0 -9 5 -9 11 0 6 6 9 13 6 17 -6 17 26 0 42
-10 9 -13 8 -13 -8 0 -11 -4 -22 -9 -26 -16 -9 -9 -43 9 -38 9 3 8 0 -4 -7
-15 -10 -16 -14 -5 -21 9 -6 1 -7 -19 -3 -19 4 -43 2 -55 -5 -18 -10 -28 -9
-52 4 l-30 16 32 -6 c19 -4 33 -2 33 3 0 5 -8 9 -17 8 -13 -1 -17 5 -16 21 2
14 -4 23 -15 25 -14 3 -12 5 6 10 14 4 20 2 16 -4 -4 -6 1 -8 15 -3 16 5 21 2
21 -10 0 -11 5 -15 15 -11 8 3 15 1 15 -4 0 -6 -7 -10 -15 -10 -8 0 -15 -5
-15 -11 0 -7 9 -9 22 -5 13 3 26 6 31 6 13 0 7 22 -11 38 -10 10 -11 13 -3 7
12 -8 13 -6 8 8 -3 9 -2 17 4 17 6 0 7 5 4 10 -4 6 -11 8 -16 5 -5 -4 -9 -1
-9 5 0 15 23 54 38 63 7 5 9 14 5 20 -3 7 2 4 13 -5 13 -12 24 -14 34 -8 9 6
10 10 3 10 -7 0 -10 16 -10 40 1 25 7 40 15 40 7 0 11 -3 9 -7 -3 -5 6 -16 19
-26 13 -10 24 -13 24 -8 0 6 -8 15 -17 20 -16 9 -14 10 8 11 16 0 30 7 34 18
5 14 4 15 -6 5 -15 -15 -49 -17 -49 -4 0 5 8 12 17 14 14 4 13 5 -4 6 -12 0
-23 -5 -26 -11 -4 -10 -7 -10 -18 0 -7 6 -16 12 -20 12 -11 0 -7 -42 4 -58 16
-20 -8 -39 -28 -22 -12 10 -13 15 -3 21 7 4 9 11 5 16 -12 11 -27 -19 -21 -42
4 -16 3 -17 -5 -5 -9 13 -11 13 -11 -2 0 -10 6 -18 13 -18 7 0 5 -5 -5 -11
-10 -5 -15 -16 -12 -24 7 -18 -12 -20 -22 -3 -4 6 0 16 9 23 9 7 14 15 10 19
-3 3 -15 -1 -25 -11 -17 -15 -18 -15 -18 6 0 12 4 19 10 16 10 -6 46 22 38 30
-13 14 -59 -23 -68 -54 -9 -33 -3 -61 7 -33 3 6 10 12 15 12 6 0 8 -3 5 -7 -4
-3 -2 -12 4 -19 15 -18 -5 -26 -34 -13 -25 11 -42 55 -26 65 20 12 7 23 -21
18 -29 -6 -42 7 -20 21 6 4 8 11 5 16 -4 5 -1 9 5 9 6 0 8 5 5 10 -3 6 0 10 8
10 8 0 21 -15 27 -32 10 -25 14 -28 17 -15 3 9 11 17 19 17 23 0 16 19 -10 26
-21 5 -23 9 -18 52 2 26 2 44 -1 41 -6 -4 -14 -36 -16 -61 -1 -5 -7 -8 -15 -8
-8 0 -16 -6 -19 -14 -3 -8 -19 -12 -44 -11 l-38 2 28 -56 c15 -31 37 -61 48
-66 11 -6 17 -14 13 -18 -4 -3 -4 -14 0 -23 6 -16 8 -15 21 2 11 15 16 17 26
7 7 -7 21 -13 31 -13 10 0 18 -5 18 -10 0 -6 -16 -8 -40 -5 -21 2 -42 0 -45
-6 -5 -6 -11 -7 -18 0 -7 5 -29 8 -50 7 -20 -1 -37 0 -37 2 0 11 31 32 40 27
6 -3 10 4 10 18 0 24 -16 37 -46 37 -8 0 -14 -5 -14 -11 0 -5 5 -7 12 -3 7 4
8 3 4 -4 -4 -7 -16 -12 -27 -12 -16 0 -19 5 -14 19 3 11 1 22 -5 26 -8 5 -7
11 2 22 11 14 10 15 -9 9 -12 -4 -24 -2 -28 4 -3 5 3 10 14 10 11 0 25 9 31
20 8 15 8 18 -3 14 -8 -3 -17 2 -21 11 -4 10 -2 14 5 9 8 -4 9 1 4 17 -4 17
-3 20 3 10 10 -15 32 -7 32 11 0 6 -3 8 -6 5 -4 -3 -15 -2 -24 3 -15 8 -19 4
-24 -23 -4 -20 -9 -27 -14 -20 -4 7 -17 10 -30 6 -12 -3 -19 -9 -16 -15 3 -5
12 -4 20 3 11 9 14 9 14 -1 0 -7 7 -18 16 -24 13 -10 13 -12 -5 -12 -11 0 -17
4 -15 8 3 4 -2 8 -10 8 -19 0 -21 -11 -4 -28 9 -9 9 -12 0 -12 -7 0 -12 6 -12
13 -1 8 -5 7 -13 -4 -19 -25 -76 -52 -63 -30 4 5 1 11 -6 13 -6 2 -8 10 -4 16
11 18 26 14 19 -4 -4 -11 -2 -15 7 -12 23 7 23 29 1 35 -12 3 -21 8 -21 12 0
4 -16 5 -35 3 -40 -5 -46 4 -12 19 l22 10 -23 -5 c-14 -3 -22 1 -22 10 0 8 8
14 18 14 14 0 15 2 2 10 -10 6 -16 6 -18 0 -2 -6 -10 -10 -18 -10 -11 0 -12 4
-4 19 11 22 14 102 2 86 -4 -5 -18 -10 -32 -11 -14 0 -37 -4 -52 -9 -22 -5
-28 -4 -28 8 0 19 -37 18 -45 -1 -2 -7 0 -10 5 -7 6 3 13 0 16 -8 4 -12 12
-13 37 -6 17 5 32 7 34 6 1 -2 -2 -16 -6 -33 -5 -16 -10 -22 -10 -13 -1 11
-14 19 -38 23 -21 3 -47 13 -58 22 -17 13 -18 16 -5 24 8 5 10 10 4 10 -6 0
-9 10 -7 23 3 16 -5 30 -27 50 -17 16 -28 33 -24 39 5 8 2 9 -9 5 -10 -4 -24
-10 -34 -14 -12 -5 -14 -3 -8 7 5 9 4 11 -4 6 -6 -4 -9 -11 -6 -16 8 -13 -37
-20 -59 -8 -20 10 -20 9 -4 -7 15 -16 15 -21 2 -47 -8 -15 -19 -28 -24 -28 -5
0 -7 -7 -3 -16 4 -11 8 -12 13 -4 4 7 12 10 18 7 5 -4 18 3 28 15 16 18 17 21
2 15 -15 -5 -15 -2 -6 26 l11 31 11 -35 c10 -31 14 -35 36 -28 14 4 19 7 13 8
-7 1 -13 8 -13 16 0 9 6 12 15 9 18 -7 20 17 3 34 -8 8 -8 12 -1 12 14 0 23
-24 23 -60 0 -20 -6 -29 -23 -34 -21 -6 -20 -8 13 -26 l35 -19 -48 1 c-49 1
-55 6 -35 26 8 8 9 12 1 12 -41 0 -59 -34 -23 -43 11 -3 20 -10 20 -15 0 -16
-32 -45 -39 -34 -7 11 -41 12 -41 2 0 -4 7 -13 15 -20 17 -14 20 -30 6 -30 -5
0 -11 9 -14 20 -4 17 -12 20 -46 18 -23 -2 -41 -8 -41 -14 0 -17 28 -25 33
-11 2 7 8 9 12 5 4 -4 2 -14 -5 -23 -10 -12 -10 -15 4 -15 9 0 16 -5 16 -11 0
-5 5 -7 10 -4 6 3 10 1 10 -5 0 -12 -13 -18 -47 -23 -12 -2 -26 -6 -29 -10
-12 -12 -24 -8 -24 8 0 8 -14 22 -31 30 -37 20 -31 31 9 17 34 -12 69 2 37 14
-22 9 -35 21 -51 49 -6 11 -21 21 -33 23 -15 2 -21 9 -17 18 3 8 1 14 -4 14
-6 0 -10 7 -10 15 0 8 5 15 11 15 5 0 7 5 4 10 -3 6 4 10 17 11 22 0 22 1 3 8
-16 6 -25 1 -41 -23 -16 -22 -19 -35 -12 -44 6 -7 8 -16 4 -19 -7 -7 -21 9
-29 32 -2 6 -15 4 -33 -5 l-29 -14 30 -4 c25 -4 27 -6 11 -11 -11 -4 -20 -19
-22 -35 -2 -16 -6 -31 -9 -34 -9 -9 -25 20 -18 32 3 5 1 6 -5 2 -15 -9 -16 6
-2 20 6 6 3 10 -10 11 -11 1 -18 -2 -15 -8 4 -5 -1 -9 -9 -9 -9 0 -16 -4 -16
-10 0 -5 -6 -10 -13 -10 -18 0 -48 -38 -36 -45 19 -12 -4 -27 -32 -21 -24 5
-29 2 -29 -14 0 -11 3 -19 8 -17 4 1 7 -2 7 -8 0 -5 -3 -9 -7 -8 -5 2 -8 -4
-8 -13 0 -12 7 -15 30 -12 17 3 30 1 30 -4 0 -4 -8 -8 -17 -9 -15 0 -14 -3 5
-16 27 -19 28 -33 2 -33 -11 0 -20 5 -20 10 0 6 -7 10 -15 10 -25 0 -17 -43
12 -66 l27 -21 -25 1 c-24 1 -24 0 -27 -111 -3 -83 0 -113 8 -113 9 0 9 -4 2
-13 -7 -8 -10 -59 -9 -130 1 -64 4 -109 8 -99 4 9 19 24 33 31 19 11 23 17 14
23 -9 5 -6 8 10 8 19 0 21 4 16 24 -5 21 -3 24 15 19 13 -3 21 -1 21 6 0 7 5
9 11 5 6 -3 15 0 20 7 4 7 11 10 14 7 11 -10 -4 -28 -23 -28 -21 0 -48 -17
-41 -25 3 -3 25 3 47 13 23 10 40 21 37 24 -3 2 10 3 28 1 25 -4 29 -2 17 6
-11 9 -4 10 29 5 41 -7 43 -6 36 15 -6 19 -4 21 19 15 16 -4 26 -2 26 5 0 6 7
11 15 11 28 0 15 -29 -17 -39 -29 -8 -26 -9 32 -10 36 -1 76 -4 90 -7 20 -4
22 -3 10 5 -24 17 -2 13 26 -5 21 -14 29 -15 49 -4 16 9 25 23 26 39 l1 26 10
-29 11 -29 13 24 13 24 1 -23 c0 -15 -8 -26 -25 -32 -34 -13 -32 -17 16 -30
22 -6 47 -14 56 -17 10 -4 14 -2 10 4 -4 6 0 28 9 48 13 31 13 40 2 47 -10 8
-10 9 2 5 8 -2 15 -14 14 -25 0 -17 2 -19 13 -10 11 8 12 7 7 -6 -3 -9 -13
-16 -21 -16 -18 0 -13 -34 5 -36 6 -1 17 -2 22 -3 6 0 10 -6 10 -12 0 -8 -4
-8 -13 -1 -7 6 -18 7 -26 3 -10 -7 -8 -11 10 -16 13 -4 27 -13 32 -19 4 -7 9
-3 13 12 4 12 11 22 16 22 6 0 8 -8 5 -19 -3 -14 0 -17 14 -14 11 3 19 0 19
-6 0 -7 -4 -9 -10 -6 -5 3 -10 1 -10 -4 0 -17 13 -13 42 14 32 29 47 32 44 8
-2 -10 -11 -18 -22 -18 -19 0 -40 -22 -31 -32 3 -2 15 1 27 7 12 6 24 9 28 6
3 -3 0 -6 -5 -6 -25 0 -4 -33 37 -60 33 -22 47 -26 57 -18 10 8 12 7 8 -4 -7
-18 48 -61 178 -137 188 -110 315 -163 504 -210 91 -23 105 -25 83 -11 -13 8
-13 10 1 10 9 0 20 -7 23 -16 5 -12 16 -15 41 -12 19 2 35 0 35 -4 0 -4 7 -8
16 -8 14 0 14 3 4 15 -9 11 -9 15 -1 15 6 0 14 -7 17 -15 4 -10 14 -13 33 -9
21 5 23 3 11 -6 -12 -9 -9 -11 18 -6 17 3 32 2 32 -3 0 -5 17 -12 38 -15 20
-4 45 -10 56 -13 12 -3 16 -1 12 6 -4 5 14 1 40 -10 25 -12 54 -19 65 -16 10
3 19 1 21 -5 2 -5 20 -10 41 -11 20 -1 37 -5 37 -9 0 -10 37 -10 43 0 2 4 3 2
1 -4 -1 -6 15 -19 37 -27 35 -14 41 -14 46 -1 3 9 13 12 29 8 18 -5 24 -2 24
11 0 19 21 16 28 -5 3 -7 0 -10 -7 -6 -6 4 -11 0 -11 -9 0 -13 -6 -15 -30 -10
-54 12 -35 -12 34 -44 5 -2 6 4 3 13 -6 14 -3 15 15 5 15 -8 17 -13 8 -19 -19
-12 27 -39 59 -34 18 3 22 2 12 -5 -11 -7 -7 -17 23 -48 58 -59 79 -114 71
-182 -13 -113 -60 -223 -149 -349 -89 -127 -143 -170 -282 -225 -174 -69 -192
-71 -464 -61 -365 14 -544 10 -690 -15 -179 -32 -275 -67 -545 -201 -224 -112
-396 -180 -497 -196 l-38 -7 0 -1307 c0 -1239 1 -1308 18 -1306 9 0 16 -5 14
-12 -2 -10 5 -12 28 -7 19 4 30 3 30 -4 0 -6 7 -11 15 -11 8 0 15 -7 15 -15 0
-18 16 -20 23 -2 3 7 9 2 15 -13 6 -14 11 -19 11 -11 1 11 4 11 16 1 8 -6 19
-9 25 -5 5 3 10 0 10 -8 0 -9 13 -15 37 -16 72 -4 87 -8 91 -19 2 -7 10 -12
17 -12 7 0 15 -6 18 -12 3 -10 9 -10 25 -1 28 16 62 5 63 -21 0 -11 3 -16 5
-10 8 19 44 4 59 -25 10 -19 14 -21 15 -8 0 9 7 17 15 17 8 0 12 -6 9 -14 -4
-11 3 -14 30 -12 20 2 36 0 36 -3 0 -3 14 -7 32 -8 17 -1 35 -8 40 -15 5 -9 8
-7 8 7 1 18 2 18 10 -2 5 -13 16 -23 24 -23 8 0 21 -3 30 -6 11 -4 16 -1 16
10 0 9 4 16 9 16 15 0 20 -27 8 -39 -14 -14 -2 -14 43 -1 32 9 33 8 16 -5 -23
-18 -21 -18 21 -6 21 6 35 6 39 0 3 -6 13 -9 22 -8 10 1 24 1 32 0 13 -1 13
-2 0 -11 -13 -8 -12 -10 5 -11 11 -1 26 -2 33 -2 6 1 12 -3 12 -8 0 -5 7 -6
15 -3 9 4 18 -2 24 -17 5 -13 10 -18 10 -11 1 16 28 16 34 0 4 -10 6 -10 6 0
1 10 6 10 22 2 11 -7 27 -9 35 -6 8 3 14 1 14 -5 0 -5 6 -9 13 -8 35 4 66 -3
86 -20 13 -11 31 -17 44 -14 16 3 18 2 8 -5 -8 -6 -9 -12 -3 -16 6 -3 13 -3
16 2 8 13 93 7 111 -8 12 -10 18 -10 29 -1 11 10 16 9 23 -4 6 -10 27 -17 62
-19 29 -2 55 -7 58 -10 4 -3 1 -6 -6 -6 -7 0 -10 -4 -6 -9 3 -6 23 -5 50 4 28
8 45 9 45 3 0 -6 7 -8 15 -4 8 3 15 0 15 -7 0 -8 4 -7 11 3 8 12 12 12 16 2 4
-10 9 -9 24 4 17 16 19 16 19 1 0 -10 8 -17 19 -17 11 0 23 -5 26 -10 9 -15
27 -1 21 16 -3 8 -1 14 4 14 6 0 10 -4 10 -10 0 -5 7 -7 15 -4 8 4 15 2 15 -2
0 -5 14 -10 30 -11 17 -1 30 2 30 8 0 5 23 7 57 5 42 -4 62 -1 74 10 15 13 17
13 22 -5 3 -12 13 -19 25 -18 11 0 18 5 16 9 -3 4 4 8 15 8 13 0 21 7 22 18 0
14 2 14 9 -3 5 -12 9 -14 9 -6 1 12 4 11 14 -3 14 -19 47 -13 47 9 0 8 15 11
46 10 30 -1 48 3 51 12 3 7 14 13 24 13 10 0 19 6 19 13 0 7 14 12 38 12 22 0
46 7 58 18 15 12 24 15 29 8 10 -18 24 -3 18 19 -3 11 0 20 6 20 6 0 11 -5 11
-11 0 -13 27 -5 97 28 36 17 50 28 46 38 -6 17 32 22 41 6 9 -13 46 -1 46 15
0 21 20 17 21 -3 1 -10 6 2 12 27 8 34 12 39 15 22 2 -13 9 -21 15 -19 7 3 11
9 10 14 -1 5 7 9 17 9 11 -1 19 3 19 8 -1 14 25 26 44 20 17 -5 47 16 47 33 0
11 70 43 93 43 10 0 27 10 38 21 17 17 23 19 30 8 6 -11 9 -10 15 4 4 10 12
16 19 13 8 -3 16 2 19 10 3 8 12 14 21 14 8 0 15 7 15 16 0 11 5 14 17 10 16
-6 64 35 76 66 4 9 6 8 6 -3 1 -26 50 -12 57 17 4 17 13 24 29 24 13 0 30 7
39 15 8 8 21 15 29 15 8 0 17 9 20 20 3 13 10 18 21 14 10 -4 18 0 22 10 3 9
15 16 26 16 12 0 18 6 16 16 -2 10 3 19 10 21 6 3 12 -3 12 -12 0 -9 5 -13 10
-10 6 4 9 14 8 23 -2 11 4 17 17 17 23 0 77 49 67 60 -4 4 3 5 14 1 15 -4 24
-2 28 9 3 8 12 15 21 15 8 0 15 9 15 21 0 11 4 18 9 14 12 -7 33 29 24 39 -3
3 -1 6 5 6 7 0 12 -6 12 -12 0 -7 12 -1 25 15 13 15 37 30 52 33 16 3 39 20
53 39 14 19 30 34 35 33 23 -1 35 3 35 13 0 6 -7 8 -16 5 -21 -8 -8 11 18 25
15 8 19 8 14 0 -4 -6 -3 -11 3 -11 6 0 14 12 17 26 4 16 11 23 21 20 7 -3 16
1 19 9 4 8 15 15 26 15 10 0 16 5 13 10 -3 6 6 15 20 20 20 8 25 15 20 30 -4
12 -2 20 5 20 6 0 8 -4 5 -10 -3 -5 1 -10 11 -10 12 0 15 6 11 21 -3 12 0 22
9 26 8 3 11 10 7 16 -3 6 -1 7 6 3 12 -8 41 15 41 32 0 6 13 13 30 17 16 4 28
11 27 17 -1 6 11 18 28 27 16 9 36 24 43 34 10 13 17 15 27 7 9 -8 15 -8 20 0
3 5 1 10 -4 10 -6 0 -11 6 -11 13 0 16 37 39 45 27 8 -13 35 -1 35 16 0 8 7
14 15 14 8 0 15 5 15 12 0 6 3 8 7 5 3 -4 12 2 20 12 7 11 23 21 36 23 14 2
22 10 22 23 0 11 5 20 10 20 6 0 16 4 23 8 6 5 16 6 21 3 5 -3 14 1 21 9 7 8
9 15 6 15 -4 0 -1 7 8 15 8 8 19 15 24 15 6 0 13 6 15 13 4 9 6 9 6 0 1 -7 6
-13 12 -13 5 0 8 4 4 9 -3 5 3 12 14 16 14 4 17 12 14 28 -5 18 -3 20 8 10 7
-7 19 -13 27 -13 12 0 12 3 2 15 -10 13 -9 15 9 15 12 0 24 7 27 15 4 8 10 12
15 9 5 -3 12 2 15 10 3 9 10 16 14 16 11 0 4 -43 -11 -71 -7 -13 -11 -25 -10
-27 1 -1 -10 -39 -25 -84 -23 -70 -26 -92 -21 -162 5 -77 23 -148 53 -209 8
-16 14 -36 14 -44 0 -12 5 -10 20 7 11 13 20 18 20 12 0 -6 -4 -13 -9 -17 -12
-7 -9 -64 3 -84 7 -11 10 -11 18 3 5 9 7 25 3 35 -3 12 0 21 10 25 15 5 15 7
1 22 -16 15 -21 34 -10 34 14 0 50 -36 47 -47 -5 -14 39 -58 60 -59 10 -1 17
4 17 12 0 8 -7 14 -16 14 -13 0 -15 7 -9 37 7 40 22 56 43 48 24 -9 12 11 -18
28 -27 17 -29 17 -23 1 4 -11 2 -15 -6 -13 -7 3 -12 8 -11 13 1 4 -7 14 -17
23 -10 8 -13 12 -7 9 6 -3 19 1 30 8 10 8 24 12 31 9 7 -3 13 0 13 6 0 6 -4
11 -10 11 -5 0 -10 4 -10 10 0 5 7 7 15 4 8 -4 15 -1 15 5 0 6 7 11 17 11 15
0 15 -1 -1 -19 -15 -17 -15 -19 1 -32 15 -12 16 -12 10 4 -4 12 -1 20 10 24 9
4 19 1 21 -5 2 -7 9 -12 15 -12 7 1 1 10 -12 20 -13 12 -21 26 -17 35 8 23 34
18 39 -7 l4 -23 8 23 c4 12 14 22 21 22 25 0 15 19 -11 22 -14 2 -24 7 -23 13
2 5 6 9 11 7 4 -1 5 10 2 25 l-6 28 16 -27 c20 -36 23 -35 22 7 -1 21 -6 35
-14 35 -10 0 -9 8 4 35 16 33 40 42 59 22 12 -12 24 -8 24 8 0 19 19 19 26 0
9 -22 23 -9 17 15 -3 13 0 20 8 20 8 0 3 9 -11 20 -21 16 -22 20 -7 20 10 0
28 9 40 21 19 17 19 19 3 13 -17 -6 -18 -4 -12 21 6 23 4 26 -10 21 -12 -5
-15 -2 -10 10 3 8 6 20 6 25 0 17 20 9 21 -8 0 -14 3 -12 10 5 11 29 29 20 22
-11 -4 -20 -3 -21 10 -4 8 9 20 17 28 17 9 0 10 3 3 8 -6 4 -14 21 -17 39 -5
25 -3 33 11 36 13 4 13 5 -4 6 -17 1 -20 6 -16 31 2 16 8 30 13 30 5 0 6 15 4
33 -4 21 -3 26 3 14 7 -17 9 -16 20 8 7 14 12 32 12 40 0 8 6 15 13 15 17 0
19 62 3 72 -7 5 -5 13 7 25 17 17 18 17 11 -2 -7 -18 -6 -18 9 -6 9 7 17 17
17 22 0 15 -43 59 -52 53 -12 -7 -21 23 -14 43 6 15 8 15 16 3 6 -8 10 -10 10
-5 1 6 6 -1 11 -14 8 -20 12 -22 22 -11 9 10 9 13 -1 17 -9 4 -8 11 5 33 14
24 14 30 2 42 -14 14 -27 16 -131 17 -26 1 -50 6 -54 12 -4 8 -3 9 4 5 11 -7
16 12 13 54 0 10 1 11 5 3 8 -18 27 -16 21 2 -4 8 -2 17 2 19 5 3 11 23 15 45
3 22 13 47 22 55 8 9 11 16 5 16 -6 0 -11 9 -11 20 0 11 5 20 10 20 6 0 10 5
10 11 0 5 -4 7 -10 4 -5 -3 -10 1 -10 9 0 9 7 16 15 16 8 0 15 5 15 10 0 6 -5
10 -11 10 -5 0 -8 4 -5 9 3 5 -1 14 -9 21 -8 7 -15 17 -15 23 0 6 7 2 15 -9
13 -17 14 -16 10 23 -2 24 0 45 4 47 4 3 8 28 8 56 1 32 8 63 22 85 16 27 18
41 11 60 -8 21 -6 27 8 32 22 9 41 33 42 54 0 9 9 19 20 22 13 3 18 10 14 21
-3 9 -3 24 2 34 4 9 8 20 8 24 1 3 5 10 10 15 6 5 6 2 1 -7 -8 -13 -7 -13 8
-1 9 7 17 17 17 21 0 5 14 22 31 39 17 17 28 35 25 40 -3 5 3 7 14 4 11 -3 20
-1 20 4 0 5 17 32 38 60 33 45 40 49 49 35 11 -16 12 -16 12 0 1 9 13 29 29
43 15 14 34 32 43 40 9 8 25 15 37 15 12 0 21 5 19 12 -1 7 8 17 21 23 12 5
22 14 22 20 0 5 5 3 11 -5 8 -12 9 -10 4 8 -5 18 -2 22 15 22 23 0 50 22 50
40 0 6 5 8 13 3 20 -13 37 -12 37 2 0 7 11 16 25 19 14 4 25 13 25 22 0 11 6
14 23 9 15 -4 18 -4 8 3 -21 15 -5 30 27 26 23 -3 32 2 42 22 8 13 25 27 39
31 38 9 72 34 64 46 -4 6 2 8 15 5 12 -4 25 -1 29 4 4 7 1 8 -8 3 -10 -5 -9
-3 2 9 9 9 29 18 45 19 21 2 28 8 26 20 -2 11 2 15 12 11 8 -3 25 3 37 15 12
11 26 18 31 15 4 -3 8 2 8 10 0 14 11 20 31 18 3 -1 6 4 6 11 2 31 37 191 59
270 42 151 131 359 200 468 96 154 203 267 459 489 105 90 182 161 173 157
-20 -7 -24 3 -7 20 11 11 14 121 4 153 -3 10 -1 21 4 24 6 4 5 18 -3 39 -7 17
-12 53 -11 80 1 26 -2 47 -6 47 -10 0 -7 36 4 46 4 4 7 14 7 22 0 12 -2 12
-17 1 -15 -13 -16 -11 -9 14 4 18 2 34 -5 43 -6 8 -13 30 -15 50 -2 30 0 34
14 29 12 -4 10 1 -6 18 -23 24 -29 47 -12 47 6 0 10 5 10 10 0 6 -5 9 -12 8
-14 -4 -29 60 -15 65 7 2 6 10 -1 23 -6 10 -12 13 -12 7 0 -21 -16 -15 -17 7
-1 13 2 18 10 14 8 -5 8 -3 0 7 -7 7 -13 23 -13 35 0 13 -4 26 -10 29 -5 3
-10 17 -10 30 0 29 -17 42 -24 18 -3 -10 -4 -1 -1 20 2 21 -1 37 -7 37 -5 0
-7 7 -4 16 3 8 2 12 -4 9 -13 -8 -13 8 1 22 8 8 4 15 -11 26 -14 10 -20 22
-17 31 4 11 1 16 -11 17 -10 0 -12 3 -4 6 17 7 15 24 -5 39 -10 7 -18 18 -19
26 -2 25 -16 58 -25 58 -5 0 -8 12 -7 28 2 29 -30 112 -44 112 -4 0 -8 9 -8
20 0 11 -5 20 -11 20 -5 0 -8 4 -4 9 3 5 -2 16 -11 25 -8 9 -16 25 -17 36 -1
11 -5 20 -9 20 -4 0 -7 3 -7 8 1 4 1 18 0 32 -1 20 -3 22 -11 10 -8 -13 -10
-12 -10 3 0 9 -5 17 -11 17 -5 0 -8 4 -5 8 3 5 -4 19 -16 32 -13 14 -22 36
-22 56 0 21 -4 30 -12 27 -7 -2 -17 11 -23 30 -11 32 -34 53 -53 49 -12 -3 -9
16 3 20 6 2 2 14 -10 30 -12 14 -21 38 -21 52 0 16 -6 26 -15 26 -8 0 -15 7
-15 16 0 8 -4 12 -10 9 -5 -3 -12 6 -16 20 -3 14 -13 25 -22 25 -13 0 -12 3 4
15 18 14 18 14 -9 15 -16 0 -26 4 -22 9 3 5 1 12 -4 16 -6 3 -8 12 -5 19 3 9
-5 17 -23 23 -27 10 -27 10 -5 17 12 4 22 12 22 17 0 6 -8 6 -20 -1 -17 -9
-20 -8 -20 10 0 12 -7 28 -15 36 -14 14 -19 11 -16 -9 1 -5 -3 -5 -9 -2 -6 4
-9 13 -6 21 3 7 1 16 -5 19 -5 4 -18 23 -30 43 -24 43 -26 50 50 -177 88 -262
179 -626 221 -876 24 -142 40 -354 33 -445 -11 -151 -72 -371 -149 -538 -54
-117 -165 -303 -176 -296 -5 3 -7 1 -6 -4 7 -26 -121 -187 -210 -263 -82 -70
-96 -79 -110 -67 -15 11 -15 11 -5 -3 11 -13 9 -20 -11 -38 -15 -14 -30 -20
-37 -16 -7 5 -10 4 -6 -2 4 -6 -10 -24 -31 -39 -47 -36 -67 -52 -108 -87 -18
-16 -38 -26 -44 -22 -6 4 -9 2 -8 -4 4 -13 -63 -62 -75 -54 -6 3 -7 1 -4 -5 7
-10 -122 -102 -142 -102 -5 0 -11 -4 -13 -8 -7 -18 -109 -71 -125 -66 -12 4
-14 3 -6 -3 8 -6 -20 -27 -90 -65 -56 -31 -109 -58 -117 -60 -8 -2 -17 -6 -20
-9 -3 -3 -83 -46 -179 -95 -148 -76 -187 -100 -256 -164 -130 -119 -207 -250
-296 -503 -81 -233 -151 -404 -165 -404 -20 0 -26 27 -6 28 16 0 16 1 0 7 -21
8 -11 29 22 45 13 7 25 18 28 26 3 8 0 11 -7 7 -7 -5 -9 -1 -4 10 4 12 3 15
-5 10 -19 -11 -43 7 -32 24 8 12 10 11 11 -5 0 -11 3 -14 6 -7 6 15 30 16 35
2 2 -6 9 3 15 20 10 28 10 31 -4 26 -13 -5 -14 -4 -3 9 7 8 17 12 24 8 6 -3 3
2 -6 13 -18 20 -58 30 -58 14 0 -5 8 -14 18 -19 15 -9 15 -10 1 -11 -26 0 -42
25 -30 48 12 23 5 33 -17 25 -10 -3 -13 -1 -7 4 16 13 16 33 1 33 -17 0 -28
-40 -16 -55 11 -13 3 -25 -16 -25 -6 0 -15 12 -18 26 -5 18 -12 24 -22 20 -9
-3 -21 -6 -27 -7 -7 0 0 -6 14 -12 21 -10 24 -16 18 -32 -4 -11 -8 -14 -8 -7
-1 19 -21 14 -22 -5 0 -11 -3 -13 -6 -5 -9 22 -20 13 -15 -13 5 -27 17 -33 25
-12 2 7 8 8 13 3 5 -5 4 -11 -4 -13 -6 -3 -10 -8 -7 -13 3 -4 -4 -6 -15 -3
-11 3 -23 9 -26 14 -11 18 -21 8 -20 -21 1 -31 12 -41 18 -15 2 9 8 12 16 6
11 -7 10 -11 -3 -24 -21 -21 -48 -11 -41 16 3 11 -2 27 -11 36 -15 15 -15 16
6 19 18 3 20 6 10 18 -13 16 -4 48 11 39 5 -3 10 -2 10 3 0 5 -15 8 -32 7 -43
-4 -42 -3 -28 -20 7 -9 8 -15 2 -15 -16 0 -24 33 -10 42 14 8 30 11 68 9 23
-1 23 0 5 8 l-20 10 20 0 c15 1 17 3 7 10 -11 7 -11 9 1 14 10 4 17 -2 20 -15
7 -26 23 -16 30 19 5 25 4 26 -8 10 -7 -10 -16 -14 -19 -8 -3 5 1 16 9 24 19
19 19 24 0 24 -8 0 -12 -3 -10 -7 8 -13 -29 -37 -63 -42 -25 -4 -32 -1 -27 9
3 8 5 16 5 18 0 2 9 1 20 -2 13 -3 20 0 20 8 0 8 3 25 7 37 5 22 4 23 -15 11
-15 -10 -24 -10 -34 -1 -11 8 -14 7 -14 -8 0 -10 4 -16 8 -14 4 3 8 -2 8 -10
0 -8 -5 -18 -11 -22 -6 -3 -8 -15 -6 -26 6 -23 -1 -48 -14 -48 -4 0 -5 8 -2
17 6 15 5 16 -9 3 -9 -8 -12 -16 -7 -18 5 -2 9 -8 9 -13 0 -4 -7 -6 -15 -3 -8
4 -15 1 -15 -6 0 -6 -5 -8 -11 -4 -6 3 -15 0 -20 -7 -15 -24 -10 -29 17 -19
33 13 34 13 28 -5 -4 -8 -16 -15 -27 -15 -19 0 -19 -1 -4 -12 15 -11 14 -13
-13 -12 -35 1 -50 12 -32 23 15 9 19 67 7 94 -5 13 -4 16 9 11 9 -3 16 -14 17
-23 0 -10 2 -11 6 -3 2 6 9 10 14 6 5 -3 9 0 9 5 0 6 -7 11 -15 11 -8 0 -15 7
-15 15 0 19 32 33 38 17 7 -22 30 -12 30 12 0 22 -3 23 -19 13 -15 -9 -24 -9
-39 1 -27 17 -32 15 -28 -10 3 -21 -1 -23 -37 -23 -38 0 -40 -1 -46 -38 -5
-29 -3 -37 7 -33 24 9 22 -9 -2 -27 -24 -18 -24 -18 -24 10 0 22 -2 25 -10 13
-5 -8 -10 -11 -10 -7 0 4 -8 3 -18 -2 -14 -7 -25 -6 -39 4 -11 8 -24 11 -28 7
-4 -4 -4 4 0 17 5 16 4 21 -4 17 -14 -9 -15 -73 -1 -81 6 -3 10 -14 10 -23 0
-15 -2 -15 -10 -2 -8 12 -10 12 -11 -5 0 -11 -3 -15 -5 -8 -3 7 -11 10 -19 7
-10 -4 -12 1 -8 18 4 13 10 26 15 29 4 3 -1 15 -12 27 l-21 22 21 0 c11 0 20
5 20 11 0 6 -7 9 -15 5 -8 -3 -21 2 -30 10 -20 20 -20 41 0 24 8 -6 19 -9 25
-5 5 3 10 1 10 -4 0 -6 4 -11 10 -11 20 0 -3 30 -24 31 -20 0 -20 1 -2 8 14 5
16 10 8 15 -15 9 -6 67 11 78 19 12 27 9 20 -8 -4 -11 -2 -15 6 -13 7 3 12 8
12 12 -1 4 -1 16 -1 28 0 11 -4 17 -10 14 -5 -3 -10 2 -10 12 0 12 -8 19 -22
20 -13 0 -18 -1 -11 -4 7 -2 9 -11 6 -20 -4 -11 -2 -14 5 -9 17 10 15 -9 -3
-24 -8 -6 -19 -9 -26 -5 -8 6 -8 2 0 -14 10 -17 9 -21 -4 -21 -10 0 -13 5 -9
12 5 7 3 8 -5 4 -9 -6 -8 -13 5 -27 15 -17 15 -19 0 -35 -16 -15 -18 -15 -30
2 -8 10 -13 23 -12 29 2 5 1 7 -1 3 -10 -17 -23 -7 -23 17 0 14 -4 25 -10 25
-5 0 -10 -5 -10 -11 0 -6 -7 -8 -16 -5 -9 4 2 -12 24 -34 23 -23 39 -47 36
-55 -3 -7 0 -24 6 -37 l11 -23 -21 24 c-17 19 -18 26 -8 39 11 13 10 14 -10 8
-18 -6 -21 -4 -15 10 4 12 3 15 -5 10 -7 -4 -12 -2 -12 6 0 9 -2 10 -8 2 -9
-15 -54 -12 -60 4 -3 11 11 16 45 15 9 0 9 4 0 18 -7 11 -15 19 -20 19 -4 0
-5 -5 -2 -10 3 -5 0 -10 -9 -10 -12 0 -12 5 -3 30 6 16 15 30 19 30 4 0 8 10
7 23 0 14 -2 17 -6 7 -12 -31 -25 -42 -35 -28 -5 8 -6 3 -2 -13 3 -15 1 -29
-4 -33 -5 -3 -8 -25 -7 -48 1 -24 0 -37 -2 -30 -3 6 -12 12 -20 12 -11 0 -14
6 -8 23 9 30 14 88 8 110 -9 34 -18 16 -18 -34 0 -43 -4 -54 -23 -67 -23 -15
-23 -15 -16 13 6 22 4 26 -7 19 -22 -14 -49 -15 -49 -2 0 6 3 8 6 5 13 -13 44
15 45 41 2 27 2 27 6 2 9 -47 19 -40 20 13 0 28 -1 44 -4 35 -2 -10 -8 -18
-13 -18 -5 0 -7 6 -4 13 2 7 -4 22 -16 32 -20 18 -20 18 -20 -3 0 -12 -4 -22
-10 -22 -5 0 -10 5 -10 11 0 5 -4 7 -10 4 -6 -4 -7 1 -3 11 4 12 3 15 -5 10
-7 -4 -12 -1 -12 8 0 9 7 16 16 16 8 0 12 5 9 10 -10 15 -35 12 -35 -5 0 -21
-20 -19 -21 3 0 15 -2 14 -10 -3 -8 -17 -9 -15 -5 10 4 26 3 27 -9 12 -13 -17
-26 -23 -24 -9 1 4 -2 17 -6 29 -4 12 -6 26 -5 30 4 15 -36 20 -62 7 -36 -18
-38 -18 -38 8 0 17 3 19 12 10 8 -8 17 -8 30 -1 11 6 25 8 33 6 9 -4 12 3 11
23 0 17 -5 26 -13 23 -6 -3 -9 -12 -7 -21 5 -13 2 -13 -10 2 -15 18 -16 18
-16 2 0 -13 -5 -16 -21 -11 -14 5 -25 2 -30 -6 -7 -11 -9 -9 -9 6 0 18 -2 18
-19 -5 -11 -13 -17 -29 -14 -34 3 -5 0 -7 -6 -5 -7 3 -12 8 -12 12 1 4 1 14 1
23 0 8 4 13 9 9 5 -3 17 9 25 26 20 41 20 42 -4 29 -11 -6 -19 -14 -19 -18 3
-19 -2 -26 -10 -13 -7 11 -12 6 -19 -20 -8 -27 -11 -31 -17 -16 -5 13 2 27 29
53 43 41 44 47 11 34 -14 -5 -25 -8 -26 -7 0 1 -1 22 -2 47 -1 25 -6 51 -11
59 -7 11 -5 13 8 8 10 -4 22 -7 27 -7 4 0 6 -8 2 -17 -5 -14 -3 -15 7 -6 15
13 5 33 -16 33 -8 0 -12 4 -9 10 4 7 -3 7 -20 0 -31 -12 -45 -13 -28 -2 8 5 9
13 3 22 -9 13 -10 13 -10 0 -1 -11 -4 -10 -16 5 -11 14 -18 16 -21 8 -3 -7 -9
-13 -14 -13 -6 0 -7 5 -4 10 8 13 -18 8 -27 -5 -13 -18 -22 6 -10 25 16 26 15
33 -3 26 -8 -3 -15 -1 -15 4 0 6 -7 10 -15 10 -8 0 -15 -6 -15 -12 0 -9 -4 -8
-10 2 -13 21 -12 39 1 20 8 -12 10 -10 5 10 -5 24 -4 24 9 6 8 -11 15 -15 15
-10 0 13 -55 63 -72 66 -7 2 -20 12 -30 23 -16 18 -17 18 -18 3 0 -10 -5 -18
-11 -18 -6 0 -8 -7 -5 -16 3 -8 2 -12 -4 -9 -5 3 -7 19 -3 35 7 36 -4 83 -17
75 -6 -3 -10 -11 -10 -16 0 -6 5 -7 10 -4 6 4 10 -5 10 -19 0 -33 -8 -33 -20
0 -8 20 -14 24 -31 19 -19 -6 -20 -5 -8 8 8 8 20 12 26 10 7 -3 13 0 13 6 0 6
-4 11 -10 11 -5 0 -10 11 -10 25 0 29 12 32 34 9 9 -8 21 -12 27 -8 11 6 -8
24 -28 25 -5 1 -16 5 -25 10 -15 8 -18 5 -18 -19 0 -16 -8 -39 -19 -51 l-19
-21 -6 22 c-10 39 -7 67 10 76 13 7 14 11 4 17 -7 4 -16 2 -20 -4 -4 -7 -13
-11 -20 -9 -17 4 -25 -19 -8 -25 8 -2 8 -4 -2 -3 -10 1 -15 12 -16 31 -1 29
-19 75 -30 75 -2 0 -2 -11 2 -25 4 -15 2 -25 -5 -25 -6 0 -11 8 -11 19 0 10
-7 24 -15 31 -12 10 -15 10 -15 -4 0 -9 -4 -16 -10 -16 -5 0 -10 4 -10 9 0 5
-3 16 -6 25 -4 11 -1 16 10 16 9 0 16 5 16 10 0 6 5 10 11 10 5 0 8 -4 5 -8
-3 -5 1 -9 9 -9 8 0 15 4 15 9 0 4 -5 8 -12 8 -7 0 3 11 22 25 19 14 32 25 29
26 -2 0 -12 2 -21 4 -12 2 -18 -3 -18 -15 0 -10 -7 -21 -16 -24 -23 -9 -27 -8
-21 9 4 8 1 17 -5 21 -7 4 -6 10 3 16 11 8 10 9 -3 4 -20 -6 -53 35 -45 56 3
8 6 6 6 -5 1 -10 5 -16 10 -12 5 3 12 1 16 -5 3 -5 13 -10 22 -10 13 0 13 3 3
15 -7 8 -19 15 -26 15 -8 0 -14 4 -14 8 0 5 18 9 40 10 23 1 40 -3 40 -9 0 -6
-7 -9 -15 -5 -8 3 -15 1 -15 -4 0 -15 21 -12 42 7 17 15 18 15 19 -8 0 -23 0
-24 9 -3 13 33 29 38 39 12 8 -22 9 -22 15 9 4 18 11 32 14 32 26 -4 34 2 22
16 -7 8 -16 12 -21 9 -5 -3 -18 -2 -29 1 -16 5 -18 9 -7 26 16 26 30 24 22 -3
-6 -22 -5 -22 9 -5 14 18 14 18 20 -1 10 -29 33 -23 33 9 0 26 -2 27 -14 11
-14 -16 -14 -16 -9 1 3 9 9 25 13 35 4 10 -2 7 -15 -8 -12 -14 -21 -20 -22
-14 0 5 9 20 20 32 12 12 19 22 18 23 -2 0 -13 2 -25 3 -30 3 -37 12 -28 33 5
10 7 24 6 31 -1 6 3 12 9 12 6 0 8 -5 4 -12 -4 -7 -3 -8 4 -4 13 8 5 36 -11
36 -6 0 -8 2 -5 5 3 3 13 3 22 -1 20 -8 21 -43 1 -50 -26 -10 -17 -27 11 -20
15 4 23 3 20 -3 -4 -5 6 -8 21 -6 16 2 35 -3 43 -10 20 -17 65 -1 56 20 -4 12
0 14 22 9 33 -8 41 -14 19 -14 -9 0 -17 -5 -17 -11 0 -5 4 -8 9 -4 14 8 21 -9
11 -25 -7 -12 -12 -11 -28 4 -13 11 -22 14 -27 6 -3 -5 -11 -8 -16 -5 -5 4 -9
0 -9 -9 0 -8 5 -16 12 -18 26 -9 -4 -27 -35 -22 -31 6 -31 6 -11 -9 22 -16 64
-13 64 5 0 6 5 6 14 -1 21 -18 48 -3 40 23 -6 20 -6 20 13 3 19 -17 46 -19 69
-5 7 5 10 -2 7 -20 -3 -26 -3 -26 9 4 9 20 18 29 28 26 8 -3 3 5 -12 17 -27
22 -58 28 -58 11 0 -5 5 -10 10 -10 6 0 10 -5 10 -12 0 -9 -3 -9 -12 0 -15 15
-32 16 -22 1 4 -7 -1 -10 -11 -7 -10 1 -20 9 -23 17 -3 8 0 11 6 7 6 -4 10 1
10 11 0 10 2 25 6 33 4 10 -3 21 -21 32 -16 10 -22 18 -15 18 9 0 11 7 7 20
-5 15 -2 20 10 20 12 0 15 -5 10 -17 -12 -31 -10 -38 8 -37 9 1 17 -2 17 -7 0
-5 3 -8 8 -8 22 4 34 -3 28 -16 -5 -15 23 -34 72 -49 18 -6 22 -4 22 13 0 12
-4 21 -9 21 -5 0 -7 10 -3 22 4 16 7 18 10 8 7 -21 28 -40 36 -33 5 6 10 -11
8 -28 -1 -4 8 -5 18 -2 23 6 27 -12 5 -21 -18 -7 -20 -46 -2 -46 6 0 21 8 32
16 19 15 19 15 -10 9 -27 -6 -28 -5 -11 6 11 7 31 13 44 15 18 2 22 -1 17 -14
-8 -21 -13 -40 -8 -30 2 4 10 5 18 2 8 -3 22 -1 32 5 15 9 14 10 -10 7 -23 -4
-28 -2 -23 10 3 9 6 20 6 25 0 5 9 9 20 9 11 0 20 -7 20 -15 0 -12 3 -12 18 3
10 9 16 19 13 22 -4 3 -6 11 -7 18 -2 27 -4 32 -15 32 -6 0 -9 -9 -6 -20 3
-12 0 -20 -7 -20 -21 0 -26 12 -10 27 11 12 12 18 3 29 -14 18 -12 20 27 28
20 5 34 2 41 -6 15 -19 21 -77 9 -82 -7 -3 -6 -5 2 -5 14 -1 17 -41 2 -41 -17
0 -11 -52 8 -66 25 -20 38 -17 15 3 -22 20 -27 54 -6 46 7 -3 13 -11 13 -18 0
-8 4 -16 9 -19 4 -3 6 6 3 19 -2 14 -8 25 -13 25 -5 0 -9 9 -9 20 0 21 15 27
25 10 3 -6 1 -10 -5 -10 -6 0 -8 -5 -5 -10 4 -6 11 -7 17 -4 7 5 9 1 5 -9 -3
-10 -2 -17 4 -17 6 0 13 9 16 19 6 23 33 37 33 17 0 -8 -5 -17 -10 -19 -6 -3
-5 -4 2 -3 16 3 21 27 9 45 -8 12 -12 12 -24 2 -10 -8 -17 -9 -22 -1 -3 5 0
13 7 15 18 7 23 82 6 102 -10 12 -9 14 3 12 7 -1 22 1 31 5 9 4 25 3 35 -3 17
-10 17 -10 0 -11 -10 0 -15 -5 -12 -11 4 -6 -2 -13 -14 -16 -28 -7 -27 -24 2
-19 18 3 22 -1 24 -22 1 -18 -1 -21 -8 -11 -5 8 -9 10 -9 4 0 -5 -5 -3 -10 5
-8 12 -9 9 -6 -10 2 -17 9 -24 21 -22 10 2 14 -1 10 -7 -3 -6 -2 -11 4 -11 5
0 11 5 13 12 4 11 13 15 53 20 14 2 19 -2 17 -14 -2 -10 1 -18 6 -18 16 0 21
27 9 40 -10 10 -8 10 10 1 20 -10 21 -9 17 14 -3 18 0 25 11 25 9 0 15 9 15
25 0 14 5 25 11 25 6 0 9 -6 6 -13 -3 -7 4 -19 14 -25 13 -8 19 -9 19 -1 0 5
5 7 10 4 6 -3 10 -15 10 -26 0 -10 5 -19 10 -19 6 0 10 5 10 12 0 6 2 9 5 6
12 -12 -7 -36 -25 -31 -10 3 -21 0 -24 -6 -4 -7 1 -11 13 -11 28 0 27 -16 -1
-23 -27 -8 -30 -5 -30 28 0 36 -8 25 -14 -19 -3 -28 -1 -34 11 -30 15 6 20 -5
15 -35 -1 -13 1 -13 14 -2 19 16 21 37 4 45 -7 3 -4 5 7 3 11 -1 21 -9 21 -17
1 -8 2 -21 3 -27 0 -7 5 -13 9 -13 13 0 13 53 0 61 -7 5 -10 10 -7 13 10 11
31 -13 32 -37 1 -14 5 -23 10 -20 4 2 7 -2 7 -9 0 -10 2 -10 9 1 5 7 14 10 20
7 6 -4 11 -3 11 3 0 7 8 7 25 1 28 -11 31 -4 10 24 -8 11 -15 25 -15 30 0 6 4
4 10 -4 5 -8 12 -11 15 -8 13 13 -7 28 -36 28 -36 0 -36 -5 -2 -34 l27 -23
-26 0 c-17 -1 -25 4 -22 12 3 7 -5 15 -16 18 -19 5 -21 10 -15 39 9 44 25 60
25 25 0 -18 5 -27 16 -27 8 0 13 4 9 9 -3 5 -1 12 5 16 5 3 10 -1 10 -10 0
-11 5 -15 15 -11 9 3 15 0 15 -10 0 -9 6 -14 13 -11 6 2 11 11 9 18 -1 9 3 7
12 -4 11 -15 15 -15 19 -3 3 8 1 17 -6 20 -7 2 -2 5 10 5 12 1 24 9 27 18 2
10 4 5 3 -11 -1 -17 4 -31 12 -34 8 -3 11 0 7 6 -4 6 1 10 13 9 11 0 17 -6 14
-14 -3 -7 2 -13 11 -13 13 0 15 4 6 19 -5 11 -10 28 -9 38 0 10 3 13 5 6 3 -7
12 -9 20 -6 8 3 14 1 14 -5 0 -6 -6 -13 -12 -15 -9 -4 -9 -6 1 -6 8 -1 25 -11
38 -23 13 -12 23 -16 23 -10 0 7 -4 12 -10 12 -5 0 -10 5 -10 10 0 6 8 10 18
8 10 -2 16 2 14 10 -1 7 3 22 9 34 10 19 13 20 23 6 13 -17 72 -35 61 -18 -3
5 -1 10 4 10 6 0 11 -5 11 -12 0 -9 3 -9 12 0 20 20 30 14 16 -10 -7 -13 -11
-29 -10 -36 2 -8 -4 -12 -14 -10 -9 2 -19 -2 -21 -9 -3 -7 4 -9 19 -5 21 5 22
4 9 -11 -7 -9 -19 -17 -25 -17 -6 0 -17 -9 -24 -20 -7 -11 -8 -20 -3 -20 5 0
11 7 15 15 3 9 12 12 22 8 11 -4 15 -2 11 4 -3 5 5 20 18 31 14 12 22 28 19
35 -5 15 22 31 37 22 5 -4 6 1 3 10 -4 9 -13 14 -20 11 -8 -3 -14 1 -14 8 0 8
9 16 19 19 15 3 18 1 14 -11 -5 -11 -2 -14 10 -9 12 4 15 1 11 -11 -2 -9 4 0
15 21 18 38 18 38 23 13 3 -14 1 -26 -3 -26 -5 0 -9 -7 -9 -15 0 -8 -8 -15
-17 -16 -15 0 -15 -2 2 -8 11 -5 23 -7 26 -5 4 2 5 -10 3 -26 l-4 -30 30 15
c17 9 31 23 31 33 2 22 2 24 -6 47 -6 19 -6 19 5 1 10 -15 14 -16 21 -5 6 10
9 8 9 -8 0 -13 5 -23 10 -23 6 0 10 5 10 12 0 6 3 9 6 6 3 -4 1 -15 -4 -25 -5
-10 -7 -26 -3 -35 9 -25 31 -7 35 28 2 16 4 32 5 35 0 3 12 4 25 2 15 -3 25 1
29 11 8 19 -4 21 -22 4 -10 -11 -11 -10 -6 5 4 9 11 17 16 17 5 0 9 9 9 19 0
11 5 23 10 26 7 4 9 -3 6 -19 -3 -17 1 -29 12 -36 15 -8 15 -11 2 -19 -8 -6
-16 -23 -17 -38 -2 -26 -1 -26 9 -8 6 11 14 22 18 25 4 3 9 10 11 17 3 9 9 9
19 3 12 -8 13 -12 2 -19 -11 -6 -10 -10 4 -15 11 -4 20 -2 22 3 6 17 22 2 22
-20 0 -10 5 -19 10 -19 6 0 10 13 10 29 0 33 17 51 26 27 3 -9 10 -13 15 -10
5 3 9 1 9 -4 0 -6 10 -5 25 1 14 7 25 15 25 20 0 4 9 7 21 7 15 0 19 5 15 15
-6 16 31 38 47 28 11 -6 9 -43 -3 -43 -5 0 -10 -4 -10 -9 0 -5 9 -7 20 -4 15
4 19 11 15 24 -5 14 -2 17 9 13 9 -3 16 -1 16 5 0 6 -6 11 -13 11 -8 0 -14 7
-14 15 0 18 9 19 24 4 9 -9 11 -7 7 8 -5 18 -2 20 20 16 17 -4 26 -1 26 8 0 7
-3 9 -6 6 -10 -10 -44 12 -44 28 0 7 -13 16 -30 20 -16 4 -30 10 -30 15 0 4
10 6 22 2 14 -3 19 -2 14 7 -4 6 0 19 9 28 14 14 18 14 26 2 5 -8 9 -19 9 -26
0 -6 3 -19 7 -29 4 -12 3 -15 -5 -10 -8 5 -10 2 -5 -9 5 -13 7 -14 14 -3 5 7
9 23 9 35 0 12 4 25 10 28 6 4 7 -1 4 -12 -4 -14 -2 -13 14 5 11 12 27 22 35
22 18 0 39 24 30 33 -3 4 -1 7 6 7 7 0 9 5 6 10 -10 15 -23 12 -28 -7 -4 -15
-5 -15 -5 2 -1 11 5 34 14 50 l14 30 -5 -27 c-4 -21 -1 -28 10 -28 21 0 19
-49 -2 -66 -17 -13 -17 -14 0 -8 16 6 22 -4 18 -33 -3 -19 16 -16 23 3 3 9 6
26 6 39 0 31 31 38 47 10 7 -11 12 -15 13 -8 0 7 7 10 18 7 14 -5 14 -4 2 4
-8 6 -17 9 -21 6 -4 -2 -9 6 -12 17 -3 12 -10 18 -15 15 -5 -3 -9 2 -8 12 1
11 -5 16 -16 14 -10 -2 -18 1 -18 6 0 19 32 7 54 -19 13 -15 27 -25 30 -22 3
4 -1 14 -9 23 -14 15 -13 19 2 37 10 11 24 18 32 15 8 -2 18 3 23 12 5 9 18
16 29 16 12 0 19 5 16 13 -2 6 3 20 11 30 14 16 14 19 -3 31 -18 13 -18 14 1
25 14 10 15 11 2 7 -12 -3 -15 -1 -11 9 3 8 9 13 13 10 5 -3 11 -1 15 5 3 5 1
10 -4 10 -6 0 -11 8 -10 18 0 10 3 12 6 5 7 -20 20 -15 27 10 5 18 8 20 16 7
6 -9 10 -10 10 -3 0 20 40 27 53 9 10 -14 12 -11 13 16 2 37 6 58 17 75 4 6 4
18 1 26 -3 10 2 18 17 22 22 7 22 8 4 21 -10 8 -15 17 -11 21 4 4 11 1 15 -6
5 -7 13 -11 19 -7 6 3 17 0 24 -8 12 -12 18 -11 38 4 25 19 37 64 20 75 -6 3
-7 0 -4 -9 4 -9 -1 -18 -10 -22 -9 -3 -16 -13 -16 -22 0 -12 -4 -11 -20 6 -26
27 -25 42 1 42 11 0 18 4 14 9 -3 5 2 16 11 25 8 9 13 20 9 26 -3 5 -1 18 5
30 5 11 15 30 21 41 8 16 8 24 -1 33 -8 8 -10 7 -5 -6 4 -11 2 -18 -5 -18 -6
0 -10 8 -8 18 2 9 -3 23 -12 30 -8 8 -10 11 -4 8 10 -5 28 27 25 46 0 4 6 5
14 2 18 -7 18 -4 5 30 -5 14 -6 25 -2 25 20 -3 24 2 8 14 -16 12 -16 13 3 13
11 0 17 -5 14 -10 -3 -5 -1 -6 5 -2 7 4 12 17 11 29 0 12 -3 16 -6 10 -2 -7
-11 -13 -19 -13 -11 0 -10 4 4 18 10 11 20 14 24 8 4 -6 12 -5 21 2 19 16 29
52 13 47 -15 -6 -52 23 -41 32 4 5 10 2 12 -4 3 -7 12 -13 21 -13 12 0 13 3 5
11 -16 16 -5 39 14 32 9 -4 14 -2 10 3 -3 6 -1 16 4 24 8 11 9 4 6 -25 -5 -38
-5 -39 7 -13 10 23 14 26 26 15 7 -6 4 5 -8 26 -20 35 -20 37 -3 37 10 0 21 7
25 15 3 8 1 15 -3 15 -5 0 -11 -4 -13 -9 -1 -5 -14 -3 -28 5 -19 11 -20 14 -6
12 10 -2 21 2 23 9 2 6 -6 13 -18 15 -17 2 -22 11 -25 41 -2 27 1 37 11 37 10
0 13 -9 10 -29 -4 -36 25 -48 49 -19 15 17 15 19 -6 28 -18 7 -19 9 -5 9 27 1
20 21 -8 21 -14 0 -25 4 -25 9 0 5 11 8 25 5 19 -3 23 -1 19 11 -4 8 -12 15
-18 15 -17 0 -38 47 -26 55 6 4 10 -1 10 -9 0 -9 7 -16 15 -16 8 0 15 -5 15
-10 0 -7 7 -7 20 0 17 9 22 7 30 -12 6 -15 9 -18 9 -7 1 22 -25 43 -44 35 -8
-3 -15 -1 -15 4 0 6 4 10 10 10 16 0 60 43 60 59 0 12 -3 11 -13 -4 -11 -14
-16 -15 -22 -5 -4 7 -2 16 6 21 11 7 11 9 1 9 -7 0 -10 5 -7 10 3 6 1 10 -4
10 -6 0 -11 12 -11 28 0 20 -3 23 -10 12 -5 -8 -12 -11 -17 -7 -9 9 17 28 29
21 4 -3 8 -1 8 5 0 5 -10 11 -22 14 -21 3 -21 4 -4 12 23 10 36 -9 31 -48 -4
-28 -3 -29 14 -11 12 13 15 21 7 27 -14 9 13 29 31 22 7 -2 10 2 6 11 -6 17
-15 18 -32 2 -12 -11 -13 -9 -6 7 4 11 9 29 10 41 1 11 5 25 9 32 4 7 3 12 -2
12 -15 0 -2 43 17 59 15 13 15 13 -1 8 -9 -3 -22 1 -29 9 -7 9 -20 12 -33 9
-12 -4 -16 -3 -11 2 31 25 58 93 36 93 -5 0 -7 -8 -4 -19 5 -21 -12 -37 -22
-20 -12 19 -13 100 -1 96 6 -3 10 -10 8 -16 -1 -7 2 -10 8 -6 5 3 10 12 10 20
0 18 -44 59 -48 45 -2 -5 -8 -10 -14 -10 -6 0 -6 6 2 15 6 8 9 19 5 25 -11 19
7 10 29 -13 25 -27 46 -71 46 -95 0 -10 13 -22 30 -29 29 -11 30 -10 29 15 -1
15 -3 20 -6 11 -3 -11 -11 -15 -24 -12 -24 7 -24 12 -1 29 13 11 14 13 1 9
-11 -4 -21 6 -34 34 -10 22 -21 38 -26 36 -4 -3 -10 4 -14 15 -3 11 -11 20
-16 20 -5 0 -9 8 -9 18 1 14 3 14 20 -6 10 -12 21 -18 24 -13 4 5 -2 15 -11
20 -16 10 -16 12 -3 20 8 5 24 16 35 25 19 14 19 15 -10 10 -16 -3 -34 -11
-40 -18 -11 -14 -38 -10 -29 5 3 5 2 9 -3 8 -4 -1 -17 -1 -28 0 -19 2 -19 3 2
13 12 6 23 19 26 29 5 19 -3 23 -33 20 -11 -1 -12 0 -3 6 8 6 11 25 7 53 -3
29 -1 40 5 31 4 -7 11 -9 14 -4 3 5 -3 14 -14 21 -16 10 -19 9 -20 -3 -1 -8
-3 -19 -4 -25 -1 -5 -3 -14 -4 -20 -2 -17 -17 -11 -17 8 -1 9 -4 26 -8 37 -6
16 -6 17 3 5 5 -8 13 -11 17 -8 11 12 -50 68 -73 68 -13 0 -23 4 -23 10 0 5 6
7 14 4 10 -4 14 2 12 20 0 14 -7 26 -14 26 -7 0 -10 5 -7 10 4 6 10 8 15 5 5
-3 11 -1 15 5 3 5 -1 10 -11 10 -14 0 -15 2 -3 17 11 13 11 17 2 20 -7 3 -13
11 -13 19 0 8 -4 14 -9 14 -4 0 -6 -10 -4 -23 6 -29 -26 -60 -47 -47 -13 9
-13 10 0 10 8 0 21 9 28 20 8 14 9 19 1 18 -6 -2 -14 3 -17 11 -3 9 0 11 8 6
7 -4 4 4 -5 19 -19 29 -31 35 -16 9 6 -13 5 -22 -5 -31 -14 -13 -15 -13 -18
31 -1 6 -5 17 -11 23 -17 20 -26 -8 -10 -33 8 -12 15 -26 15 -30 0 -4 -5 0
-11 10 -8 14 -14 15 -24 7 -9 -8 -14 -7 -18 4 -4 11 -1 13 10 9 13 -5 14 -3 3
16 -8 17 -8 26 0 36 7 9 8 15 0 20 -5 3 -10 -1 -10 -9 0 -20 -9 -20 -34 -1
-15 12 -17 17 -7 29 11 13 9 20 -6 39 -16 21 -20 22 -32 9 -12 -13 -12 -17 5
-29 19 -15 19 -15 -1 -11 -13 2 -24 15 -30 36 -5 17 -13 32 -17 32 -4 0 -8 12
-9 28 -1 27 -1 27 -8 3 -4 -14 -13 -26 -21 -29 -13 -3 -13 -2 0 7 13 9 12 11
-5 12 -11 0 -14 3 -7 6 14 6 16 33 2 33 -5 0 -10 9 -10 20 0 13 -5 18 -15 14
-8 -4 -15 -1 -15 7 0 7 -2 10 -5 7 -9 -8 6 -38 16 -32 5 3 9 1 9 -5 0 -5 -4
-13 -10 -16 -5 -3 -10 -1 -10 5 0 7 -7 10 -15 6 -8 -3 -15 0 -15 6 0 6 -3 8
-7 4 -4 -3 -13 4 -21 16 -7 13 -11 15 -8 6 3 -12 0 -18 -9 -18 -9 0 -12 6 -9
15 7 17 -2 20 -11 5z m-5197 -1756 c17 10 23 -11 7 -24 -20 -16 -11 -46 24
-77 18 -17 22 -26 13 -30 -6 -2 -9 -10 -5 -15 4 -7 -2 -9 -15 -6 -12 4 -22 2
-22 -3 0 -15 39 -10 65 7 22 15 25 15 25 1 0 -21 17 -30 38 -22 15 6 15 8 -3
16 -17 8 -15 8 7 4 14 -3 28 -2 31 3 2 4 2 1 1 -6 -5 -16 28 -30 34 -14 2 7
13 12 25 12 16 0 18 -3 9 -12 -7 -7 -12 -23 -12 -37 0 -20 3 -23 9 -11 6 8 7
18 4 24 -4 5 -1 6 7 1 9 -6 12 -4 8 7 -4 8 -3 21 2 28 6 9 10 7 15 -9 4 -13 1
-28 -7 -38 -11 -15 -10 -16 10 -11 12 4 20 3 17 -2 -3 -4 -15 -10 -27 -13 -13
-2 -31 -8 -41 -12 -13 -5 -18 -4 -17 6 5 29 0 50 -10 44 -6 -4 -7 -11 -4 -17
5 -7 0 -9 -14 -6 -13 4 -22 1 -22 -5 0 -7 -5 -5 -10 3 -7 10 -5 18 5 26 11 8
6 10 -20 10 -19 -1 -35 -4 -35 -8 0 -5 -7 -8 -16 -8 -8 0 -12 5 -9 10 3 6 -3
10 -15 10 -12 0 -18 -4 -15 -10 3 -5 -3 -10 -15 -10 -12 0 -19 4 -16 9 3 5 -1
12 -10 15 -15 6 -15 8 0 30 14 22 14 25 0 30 -9 3 -24 6 -35 6 -24 0 -25 17
-1 23 15 4 15 5 0 6 -9 0 -25 -7 -34 -16 -16 -16 -17 -16 -12 -1 6 13 1 16
-20 14 -15 -2 -28 -10 -30 -19 -4 -18 -36 -32 -52 -22 -5 3 -10 14 -9 23 0 11
3 12 6 5 2 -7 13 -13 22 -13 13 0 18 7 16 24 -3 23 0 25 36 24 21 0 39 -4 39
-8 0 -11 39 0 46 12 4 5 1 15 -5 21 -9 9 -11 8 -6 -5 5 -12 2 -18 -8 -18 -12
0 -14 6 -8 28 5 15 13 26 20 25 6 -2 11 3 11 10 0 9 3 8 9 -2 5 -7 13 -11 19
-7z"/>
<path d="M16465 7200 c-8 -15 -100 -110 -205 -212 -233 -228 -350 -305 -498
-329 -61 -10 -72 -9 -124 10 -31 12 -115 63 -185 113 -216 155 -329 206 -568
258 -71 16 -166 38 -210 49 -116 30 -122 29 -89 -14 14 -19 30 -35 35 -35 5 0
18 -9 29 -20 11 -11 27 -20 35 -20 8 0 15 -4 15 -10 0 -5 6 -10 13 -10 6 0 36
-11 65 -25 30 -14 64 -27 77 -29 13 -2 33 -9 44 -16 12 -6 26 -8 31 -5 6 3 10
1 10 -5 0 -6 3 -9 8 -6 4 2 32 -4 62 -15 30 -10 61 -19 70 -19 23 0 168 -47
220 -71 25 -12 50 -22 55 -24 25 -5 94 -42 89 -47 -3 -3 3 -5 13 -4 10 0 17
-5 15 -12 -1 -8 2 -11 6 -8 5 3 17 -3 27 -14 9 -10 22 -17 29 -14 7 3 21 -4
31 -16 10 -11 22 -20 27 -20 5 0 21 -11 36 -25 15 -14 37 -28 49 -31 12 -3 24
-12 27 -19 8 -22 109 -53 191 -60 88 -7 151 5 185 37 12 11 24 18 27 15 3 -3
14 3 26 14 11 10 26 19 31 19 6 0 22 14 36 30 14 17 29 30 34 30 8 0 239 231
279 279 9 12 17 28 17 36 0 8 4 15 10 15 5 0 17 14 26 31 14 27 14 40 4 95 -7
35 -16 64 -21 64 -4 0 -15 15 -24 33 -19 41 -41 43 -60 7z"/>
<path d="M19047 6063 c-10 -3 -17 -12 -16 -21 5 -50 -1 -60 -36 -64 -25 -3
-35 0 -35 10 0 7 5 10 10 7 6 -3 10 -2 10 3 0 12 -29 25 -31 14 -1 -4 -3 -20
-5 -36 -1 -15 -5 -30 -8 -33 -9 -10 -27 9 -22 23 3 8 0 14 -8 14 -7 0 -12 -10
-12 -22 1 -17 -5 -24 -22 -26 -15 -2 -22 -9 -18 -17 2 -7 -5 -16 -17 -20 -21
-6 -20 -7 7 -15 31 -10 66 5 66 27 0 7 5 13 10 13 6 0 10 -8 10 -19 0 -10 7
-24 15 -31 9 -8 15 -8 15 -2 0 6 -6 13 -12 15 -8 3 -6 6 5 6 9 1 17 6 17 11 0
14 47 13 56 -2 5 -8 2 -9 -11 -4 -18 6 -18 6 1 -15 16 -17 20 -18 22 -6 2 9
12 19 23 22 20 7 27 25 9 25 -5 0 -10 5 -10 10 0 16 17 11 24 -7 4 -11 1 -22
-8 -29 -21 -15 -33 -74 -16 -74 6 0 14 9 17 20 6 22 23 28 23 8 -1 -18 -25
-48 -39 -48 -6 0 -14 7 -18 15 -5 14 -8 14 -25 -2 -15 -13 -21 -14 -27 -5 -12
19 -40 4 -34 -19 3 -10 10 -19 15 -19 5 0 6 -5 2 -12 -5 -7 -11 -5 -21 8 -12
16 -15 17 -23 4 -14 -22 -12 -30 5 -24 8 4 15 1 15 -5 0 -6 -10 -11 -22 -11
-21 0 -21 -1 -5 -17 16 -16 19 -16 28 -3 8 12 10 10 5 -9 -3 -14 0 -31 5 -38
11 -13 4 -33 -11 -33 -4 0 -6 8 -4 18 3 10 -4 22 -16 30 -20 12 -21 11 -15 -7
6 -21 -9 -29 -20 -11 -3 6 -10 10 -16 10 -15 0 -10 -32 7 -51 15 -16 14 -19
-4 -40 -12 -12 -27 -19 -35 -16 -18 7 -27 -29 -16 -59 6 -17 8 -16 14 9 5 20
13 27 32 27 13 0 21 -4 18 -10 -3 -5 -1 -10 4 -10 6 0 11 5 11 10 0 17 28 11
40 -7 9 -15 10 -14 4 6 -6 22 -4 23 20 17 18 -4 36 0 59 16 l33 21 -15 54
c-14 47 -31 71 -31 43 0 -5 -7 -10 -15 -10 -8 0 -15 5 -15 10 0 6 7 10 15 10
10 0 15 10 15 29 0 17 5 33 10 36 6 3 10 16 11 28 0 12 3 16 6 10 7 -18 30
-16 37 2 3 8 13 15 21 15 15 0 15 -2 1 -22 -22 -31 -4 -62 32 -54 23 5 24 5 8
-5 -13 -8 -25 -8 -42 0 -20 9 -24 8 -24 -5 0 -9 -5 -12 -12 -8 -8 5 -9 2 -5
-10 4 -10 2 -26 -3 -37 -9 -15 -7 -19 6 -19 11 0 15 -6 11 -20 -3 -11 -1 -22
3 -25 13 -8 39 5 43 23 3 10 5 5 6 -10 1 -30 10 -35 29 -16 14 14 27 4 17 -12
-4 -7 -18 -10 -31 -7 -13 2 -24 0 -24 -4 0 -5 -11 -9 -25 -9 -27 0 -31 -10
-15 -40 6 -12 17 -17 28 -14 14 5 14 4 2 -4 -31 -20 -60 -24 -60 -9 0 8 -14
17 -32 21 -35 7 -50 0 -28 -14 13 -9 13 -10 0 -10 -13 0 -13 -1 0 -10 12 -8
12 -10 -3 -16 -9 -3 -17 -13 -17 -22 0 -22 29 -52 46 -45 9 3 14 -2 14 -13 0
-13 7 -9 24 16 12 19 21 42 18 52 -2 10 0 18 4 18 14 -1 40 -23 47 -40 4 -10
6 -8 6 8 1 12 7 22 14 22 22 0 27 -11 15 -34 -17 -30 -16 -48 5 -68 24 -25 40
-23 32 5 -5 19 -4 20 5 4 13 -20 5 -37 -16 -37 -15 0 -30 -10 -65 -45 -19 -19
-20 -19 -13 -1 5 13 1 23 -12 33 -18 14 -18 15 4 8 13 -4 29 -2 37 5 22 18 18
32 -5 20 -18 -9 -20 -8 -20 15 0 20 -4 24 -21 22 -12 -2 -27 -11 -34 -20 -7
-9 -14 -14 -17 -12 -3 3 -11 -2 -18 -10 -10 -12 -10 -19 -1 -28 9 -9 14 -9 21
3 5 8 12 11 17 7 11 -12 -19 -27 -41 -21 -13 4 -17 2 -14 -7 3 -8 18 -14 35
-14 23 0 29 -4 26 -16 -4 -13 -13 -16 -43 -12 -36 5 -37 4 -33 -21 4 -21 8
-24 19 -15 11 9 14 7 15 -7 1 -11 5 -6 9 11 4 17 8 22 9 11 1 -15 4 -16 16 -6
8 6 19 9 25 5 17 -10 11 -25 -9 -25 -11 0 -21 -5 -23 -12 -2 -6 -20 -11 -40
-10 -28 1 -37 -3 -41 -18 -3 -11 -12 -20 -21 -20 -10 0 -15 -8 -13 -22 1 -16
-3 -22 -13 -19 -31 7 -43 6 -48 -8 -3 -10 1 -12 19 -8 l24 6 -25 -19 c-13 -10
-29 -33 -35 -50 l-11 -31 -23 20 c-15 13 -32 19 -46 15 -20 -5 -42 9 -44 29
-1 4 -3 7 -6 7 -3 0 -12 0 -20 0 -8 0 -14 -6 -12 -12 1 -8 -10 -14 -25 -16
-26 -3 -41 -22 -18 -22 6 0 10 -6 10 -14 0 -28 20 -67 31 -61 7 5 5 13 -6 25
-15 17 -11 50 6 50 5 0 9 7 9 15 0 8 4 15 9 15 5 0 14 -7 21 -15 11 -14 7 -19
-12 -16 -5 0 -8 -4 -8 -9 0 -6 8 -10 17 -10 13 0 14 -3 5 -12 -15 -15 -16 -32
-2 -23 6 3 10 -3 10 -15 0 -12 -4 -19 -9 -16 -4 3 -6 -6 -3 -20 3 -16 7 -21
12 -14 4 6 9 11 11 10 14 -5 37 14 32 28 -4 15 -3 15 6 2 15 -21 14 -30 -4
-30 -8 0 -15 -9 -15 -20 0 -24 18 -26 35 -3 7 9 17 13 23 9 19 -11 14 -26 -8
-26 -13 0 -18 -5 -13 -16 3 -8 12 -13 19 -10 8 3 11 0 7 -10 -3 -9 2 -14 17
-14 11 0 18 5 15 10 -3 6 -1 10 4 10 19 0 12 -30 -6 -30 -16 -1 -16 -2 1 -15
20 -15 20 -15 0 -15 -11 0 -25 5 -31 11 -8 8 -16 6 -31 -9 -11 -11 -18 -23
-15 -25 2 -3 -5 -10 -16 -17 -16 -8 -21 -8 -19 1 2 6 -3 14 -10 16 -7 3 -11
-1 -10 -7 5 -20 -16 -22 -37 -4 -16 13 -17 15 -3 10 10 -3 20 0 24 6 5 8 -4 9
-29 5 -21 -3 -37 -2 -37 3 0 9 28 23 50 24 11 1 14 11 12 41 -2 38 -2 39 11
15 14 -27 38 -33 45 -11 3 10 -2 11 -18 6 -19 -6 -22 -4 -18 12 13 48 -74 54
-122 8 -24 -23 -27 -31 -18 -43 10 -11 7 -18 -12 -32 -14 -10 -29 -18 -34 -17
-10 2 -23 -35 -25 -71 -1 -15 3 -21 10 -16 8 5 8 1 0 -13 -7 -15 -17 -19 -36
-16 -21 4 -25 1 -25 -17 0 -13 -5 -20 -12 -17 -7 2 -12 11 -10 21 2 9 -1 16
-6 16 -6 0 -12 -12 -14 -27 -3 -26 -1 -28 29 -28 27 0 32 3 27 18 -3 9 -1 17
5 17 20 0 20 -18 0 -44 -12 -15 -19 -30 -15 -33 3 -3 8 1 12 10 8 22 34 9 32
-16 -2 -32 43 -119 64 -125 22 -5 18 -40 -6 -58 -16 -11 -14 -14 20 -23 43
-12 54 -8 54 21 0 11 8 30 18 43 18 22 19 22 41 5 15 -10 20 -20 13 -24 -6 -3
-13 -2 -17 4 -3 5 -13 10 -22 10 -12 0 -14 -7 -9 -35 7 -36 -9 -75 -31 -75
-19 0 -63 -22 -63 -32 0 -4 9 -8 20 -8 10 0 24 -8 30 -17 10 -16 10 -16 5 3
-5 19 -2 21 22 16 16 -2 25 -2 21 2 -3 4 4 23 17 42 13 19 25 40 27 46 3 8 12
8 34 0 l29 -10 -32 -1 c-18 -1 -33 -5 -33 -11 0 -5 4 -10 10 -10 15 0 5 -41
-14 -55 -9 -7 -15 -17 -14 -22 2 -5 -14 -25 -34 -46 -34 -34 -52 -67 -29 -53
5 3 12 -9 15 -27 4 -20 19 -41 39 -56 29 -22 32 -28 23 -48 -6 -12 -16 -23
-21 -23 -6 0 -16 -15 -24 -32 -8 -18 -19 -36 -24 -39 -12 -8 -2 -39 12 -39 5
0 7 9 4 20 -3 11 0 20 6 20 6 0 11 7 11 15 0 8 7 15 15 15 8 0 15 7 15 16 0 9
5 12 12 8 7 -5 9 -2 5 9 -4 11 -2 14 9 10 21 -8 18 -14 -22 -48 -25 -22 -35
-37 -31 -51 4 -18 5 -17 12 4 9 28 35 29 35 1 0 -15 5 -19 16 -15 10 4 13 2 7
-7 -4 -6 -6 -24 -5 -38 2 -18 -5 -32 -27 -49 -17 -12 -31 -29 -31 -35 0 -7 -7
-15 -15 -19 -21 -8 -52 64 -33 76 10 6 9 8 -4 8 -24 0 -30 -14 -14 -35 13 -18
10 -65 -4 -65 -5 0 -12 9 -15 21 -7 22 -25 14 -29 -14 -1 -8 -8 -22 -15 -31
-12 -14 -11 -16 6 -16 10 0 25 6 32 13 11 9 13 9 7 0 -4 -8 -1 -13 8 -13 9 0
16 8 16 18 0 24 8 32 26 25 11 -4 10 -9 -3 -29 -8 -13 -13 -33 -10 -44 4 -15
-5 -30 -31 -55 -35 -32 -35 -35 -14 -35 13 0 36 14 52 32 16 17 31 30 34 27 7
-7 -6 -59 -15 -59 -4 0 -3 -14 3 -31 7 -22 13 -27 19 -18 4 7 6 16 3 20 -2 4
3 9 11 13 21 8 27 -8 13 -41 -6 -15 -12 -37 -12 -48 -1 -11 -8 -20 -16 -20 -8
0 -14 6 -12 14 6 30 -9 69 -26 66 -9 -2 -19 -4 -21 -4 -3 -1 4 -8 15 -16 18
-14 18 -14 -10 -15 -27 0 -28 2 -23 35 7 41 -4 46 -23 10 -11 -20 -11 -27 1
-41 13 -16 12 -16 -11 -3 -13 8 -30 21 -36 29 -7 8 -16 12 -20 7 -10 -10 50
-61 104 -88 23 -11 40 -25 36 -30 -3 -5 0 -9 5 -9 6 0 11 -7 11 -15 0 -8 4
-15 10 -15 16 0 49 -33 43 -43 -3 -5 4 -15 16 -23 12 -8 21 -21 21 -29 0 -8 6
-18 14 -22 13 -8 36 -45 36 -58 0 -3 -4 -3 -10 0 -5 3 -10 -1 -10 -9 0 -9 4
-16 10 -16 12 0 41 -55 33 -64 -4 -3 -1 -6 5 -6 7 0 12 9 12 20 0 15 6 19 25
18 14 -1 25 -6 25 -9 0 -4 3 -15 7 -25 5 -14 2 -16 -15 -12 -12 4 -20 2 -16
-3 3 -5 14 -9 25 -9 10 0 19 -4 19 -10 0 -5 7 -10 15 -10 8 0 15 -4 15 -10 0
-15 -16 -12 -30 5 -13 16 -30 20 -30 8 0 -12 57 -73 62 -68 3 3 13 -11 24 -30
10 -19 22 -35 26 -35 3 0 8 -10 10 -22 2 -12 9 -23 16 -24 7 -1 8 0 2 3 -5 2
-8 9 -4 14 3 5 13 5 25 -2 15 -8 19 -18 15 -39 -3 -22 1 -32 20 -45 13 -8 24
-23 25 -33 0 -10 3 -12 6 -4 8 20 31 14 39 -10 4 -13 15 -31 26 -40 11 -9 18
-22 17 -30 -1 -7 -1 -18 0 -24 1 -14 51 -25 51 -13 0 5 -9 9 -19 9 -23 0 -36
16 -21 25 13 8 50 -22 50 -39 0 -7 9 -18 20 -26 11 -8 20 -20 20 -28 0 -7 5
-10 10 -7 6 3 10 -1 10 -10 0 -18 17 -38 40 -48 8 -4 2 -5 -15 -2 -27 5 -28 4
-12 -9 11 -8 15 -20 11 -32 -5 -15 -2 -14 13 4 l19 23 14 -25 c13 -26 30 -35
30 -16 0 6 -4 10 -10 10 -5 0 -10 8 -10 18 1 15 2 15 15 -2 8 -11 15 -29 15
-40 1 -12 7 -32 15 -46 12 -20 14 -21 15 -7 0 10 3 17 8 15 4 -3 22 -11 40
-18 17 -8 32 -18 32 -22 0 -4 8 -8 18 -9 14 0 14 -2 -3 -9 l-20 -8 20 -7 c11
-5 28 -15 38 -24 16 -13 19 -13 27 -1 7 10 10 11 10 3 0 -7 9 -13 20 -13 11 0
20 5 20 12 0 6 6 3 14 -7 8 -11 19 -16 30 -12 10 4 16 1 16 -8 0 -8 -6 -15
-12 -15 -9 0 -8 -4 2 -10 18 -12 33 -13 26 -2 -3 5 4 16 15 26 15 12 24 14 33
7 7 -6 16 -8 19 -4 4 3 7 1 7 -5 0 -18 -22 -26 -31 -11 -11 18 -23 5 -15 -16
4 -12 12 -14 28 -9 13 4 25 10 28 15 10 14 34 14 35 -1 0 -10 13 -14 46 -15
25 0 53 -6 62 -14 16 -12 17 88 17 1412 l0 1426 -36 28 c-20 15 -46 37 -58 48
-12 11 -25 20 -30 20 -5 0 -10 15 -12 34 -2 19 -8 39 -13 45 -5 6 -21 41 -36
78 -15 38 -30 66 -34 64 -4 -3 -7 4 -8 14 -2 29 -52 102 -65 94 -6 -4 -8 -3
-5 3 9 14 -23 55 -38 49 -8 -3 -11 2 -8 13 3 11 -5 26 -19 37 -23 18 -28 25
-28 41 0 3 -8 -1 -18 -10 -16 -15 -19 -15 -30 4 -12 19 -11 19 7 9 16 -8 19
-8 15 3 -3 8 -16 19 -30 25 -13 7 -24 16 -24 22 0 7 7 4 16 -4 26 -26 29 -18
4 9 -24 26 -36 33 -25 15 9 -15 -18 -12 -40 4 -16 12 -17 16 -6 30 12 14 11
16 -9 16 -15 0 -20 5 -17 14 3 8 -1 20 -9 26 -8 7 -14 9 -14 6 0 -4 -7 -1 -15
8 -9 8 -22 13 -29 10 -9 -3 -15 5 -19 25 -5 22 -14 32 -32 37 -14 3 -25 13
-25 21 0 8 -6 13 -12 11 -7 -3 -21 6 -31 19 -20 24 -65 54 -53 34 5 -7 1 -9
-8 -5 -9 3 -14 10 -11 14 3 4 -2 11 -11 14 -10 4 -13 2 -8 -7 4 -6 -2 -4 -13
6 -28 24 -39 21 -55 -13 -7 -16 -20 -30 -28 -30 -12 0 -13 2 -1 9 7 5 11 13 7
19 -3 6 -2 14 4 17 8 5 7 11 -1 21 -9 11 -8 14 2 14 11 0 11 2 -1 10 -8 5 -17
9 -20 9 -3 -1 -13 -3 -23 -6z m-347 -1348 c0 -16 -6 -25 -15 -25 -9 0 -15 -9
-15 -21 0 -18 5 -21 30 -17 26 4 30 1 30 -18 0 -12 -3 -24 -7 -27 -5 -2 -3 -2
4 -1 21 5 23 -12 3 -32 -41 -41 -53 -49 -58 -36 -2 7 -8 9 -13 6 -6 -3 -21 -3
-35 0 -19 5 -24 11 -19 26 8 27 -29 15 -43 -13 -9 -20 -10 -21 -17 -4 -5 12
-1 26 11 40 29 33 44 64 44 89 1 20 2 21 13 7 11 -15 15 -15 42 0 19 10 29 22
27 34 -2 9 1 17 7 17 6 0 11 -11 11 -25z"/>
<path d="M9800 5903 c-257 -24 -457 -74 -888 -219 -264 -89 -544 -279 -738
-501 -193 -221 -487 -661 -593 -888 -99 -210 -186 -462 -202 -583 -22 -164 1
-433 55 -638 36 -138 220 -550 325 -729 120 -203 195 -288 582 -660 130 -124
197 -204 372 -439 120 -161 277 -345 359 -420 125 -117 339 -248 563 -346 95
-41 155 -73 155 -81 0 -5 5 -9 11 -9 5 0 7 5 4 10 -11 18 3 11 31 -15 15 -14
32 -25 39 -25 7 0 18 -7 25 -15 7 -8 16 -13 20 -10 9 5 65 -22 87 -42 8 -7 20
-10 28 -6 9 3 21 1 28 -5 17 -14 118 -43 128 -37 4 3 16 -6 25 -20 13 -20 19
-23 25 -13 6 9 9 5 10 -12 1 -15 3 -19 6 -9 4 17 36 16 59 -2 6 -5 13 -7 16
-4 3 3 31 -7 64 -21 32 -15 76 -28 96 -29 20 -1 43 -6 50 -12 7 -6 29 -13 49
-17 21 -4 52 -14 70 -23 19 -10 46 -16 62 -14 15 1 27 -2 27 -9 0 -6 6 -10 13
-7 6 2 27 -2 46 -9 21 -9 54 -12 85 -9 35 3 43 2 26 -4 -22 -7 -23 -9 -7 -16
9 -4 24 -5 32 -1 8 3 15 1 15 -4 0 -6 1100 -10 3041 -10 3034 0 3041 0 3046
20 3 11 8 20 12 20 6 0 43 67 43 80 1 3 9 11 19 18 11 7 19 22 19 33 0 10 6
19 14 19 8 0 17 14 21 30 4 17 11 30 16 30 5 0 9 9 9 21 0 13 4 18 12 13 8 -5
9 -2 5 9 -3 10 -2 17 3 17 6 0 10 5 10 11 0 6 9 22 20 36 11 14 20 34 20 44 0
11 4 19 10 19 5 0 21 26 36 57 14 32 32 62 40 66 8 4 14 17 14 28 0 11 5 17
10 14 6 -4 10 5 10 20 0 14 4 24 9 21 5 -3 12 6 16 21 3 15 15 39 26 54 10 15
19 38 19 51 0 13 7 33 15 44 8 10 19 36 25 57 6 20 15 37 20 37 5 0 7 7 3 16
-3 9 -2 19 3 23 5 3 15 28 22 56 7 27 16 52 20 55 4 3 9 21 11 40 1 19 7 40
12 46 5 6 11 29 14 50 2 22 11 75 20 119 8 44 16 92 17 107 1 16 5 28 9 28 10
0 2 328 -10 395 -6 33 -18 85 -27 115 -9 30 -19 69 -21 85 -3 17 -9 35 -13 40
-4 6 -11 31 -14 56 -3 25 -18 99 -32 165 -14 65 -28 137 -30 159 -16 141 -37
232 -100 420 -48 145 -68 194 -77 188 -6 -4 -8 1 -4 10 3 10 3 17 -2 17 -5 0
-18 28 -31 63 -48 134 -130 284 -232 423 -57 77 -156 212 -220 300 -130 179
-231 282 -361 368 -96 64 -264 156 -345 190 -157 66 -408 125 -807 191 -360
59 -541 110 -835 235 -152 64 -394 186 -445 224 -16 13 -93 56 -170 96 -77 40
-225 121 -330 178 -241 134 -752 389 -871 435 -95 38 -228 77 -329 98 -115 23
-356 16 -625 -19 -328 -42 -576 -64 -745 -66 -124 -1 -157 3 -285 31 -262 58
-475 83 -677 81 -98 0 -194 -3 -213 -5z"/>
<path d="M18750 5860 c-8 -15 -8 -20 2 -20 18 0 -2 -16 -30 -25 -21 -6 -23 -4
-17 14 3 12 2 21 -3 21 -5 0 -12 -9 -15 -20 -3 -11 -13 -23 -24 -27 -10 -3
-21 -11 -25 -17 -11 -16 -10 -38 2 -31 6 4 7 11 4 17 -4 6 -1 9 7 6 8 -3 14
-13 14 -24 1 -28 14 -44 36 -44 11 0 19 -7 19 -17 0 -13 3 -14 8 -6 6 10 16
10 44 1 27 -8 34 -15 31 -29 -8 -28 6 -23 17 6 6 16 17 25 31 25 17 0 20 5 17
25 -3 14 -1 25 4 25 5 0 13 12 19 27 7 20 12 24 18 14 6 -10 10 -9 14 3 8 21
-2 46 -19 46 -8 0 -14 5 -14 10 0 6 -7 10 -15 10 -8 0 -15 -4 -15 -10 0 -5 -7
-10 -16 -10 -10 0 -14 6 -11 14 4 10 0 12 -14 9 -10 -3 -19 -10 -19 -16 0 -6
3 -7 6 -4 4 3 16 0 28 -8 25 -18 50 -20 40 -2 -5 8 -3 8 7 -1 12 -11 11 -15
-4 -27 -11 -7 -25 -11 -33 -8 -8 3 -21 0 -28 -6 -10 -8 -16 -9 -19 -1 -3 6 -4
5 -3 -2 2 -7 15 -13 29 -13 33 1 34 -3 5 -14 -34 -12 -52 11 -44 59 5 32 3 40
-9 40 -9 0 -13 5 -10 11 4 6 13 8 21 5 7 -3 15 -2 18 2 2 4 -6 9 -19 10 -16 1
-28 -6 -35 -18z"/>
<path d="M4080 4104 c50 -21 100 -49 100 -56 0 -14 -28 -9 -45 8 -21 22 -28
13 -16 -20 9 -21 8 -26 -5 -26 -10 0 -14 6 -11 14 4 9 0 13 -11 11 -9 -2 -20
-4 -23 -4 -11 -2 -16 -62 -6 -68 5 -3 -2 -12 -16 -20 -17 -8 -24 -19 -21 -28
4 -8 1 -15 -4 -15 -6 0 -17 -14 -26 -31 -14 -28 -14 -30 1 -25 13 5 14 4 4 -8
-7 -8 -18 -13 -24 -10 -8 3 -12 -7 -12 -26 0 -16 3 -30 8 -30 4 0 7 6 7 13 0
8 4 7 11 -3 8 -12 9 -9 5 12 -8 36 7 43 44 21 30 -18 40 -36 18 -32 -19 3 -48
-11 -48 -23 0 -6 6 -8 14 -5 9 4 17 -1 19 -11 3 -12 5 -11 6 6 0 12 6 21 12
20 17 -4 31 53 17 69 -7 8 -7 13 0 13 18 0 23 32 7 44 -13 9 -14 17 -4 44 6
18 15 29 22 25 6 -4 8 0 4 10 -5 13 0 16 28 15 20 -1 31 -6 29 -13 -3 -6 0
-22 5 -36 7 -17 10 -19 10 -6 1 21 21 23 21 2 0 -8 5 -15 11 -15 6 0 9 7 5 15
-3 9 0 15 9 15 8 0 15 5 15 12 0 6 7 3 16 -8 14 -18 15 -18 4 4 -6 12 -15 22
-20 22 -6 0 -10 5 -10 12 0 6 3 8 7 5 3 -4 13 -1 21 6 13 10 15 9 9 -5 -8 -24
6 -23 27 1 17 19 16 19 -21 18 -21 -1 -43 2 -50 6 -7 4 -10 -2 -9 -18 0 -14 4
-25 9 -25 4 0 7 -4 7 -10 0 -14 -27 -12 -33 3 -4 10 -6 10 -6 0 -1 -7 -6 -13
-11 -13 -7 0 -7 6 0 19 16 32 13 41 -13 32 -18 -7 -23 -5 -23 9 0 13 5 16 16
11 30 -16 41 -2 24 30 -8 16 -20 27 -26 23 -5 -4 -13 -2 -17 5 -4 6 -23 13
-41 16 -19 3 -28 2 -20 -1z"/>
<path d="M4380 3984 c-6 -14 -7 -37 -4 -52 l7 -27 -22 25 c-18 20 -24 22 -31
10 -11 -17 -13 -29 -11 -49 2 -8 -2 -10 -10 -5 -9 5 -10 2 -6 -9 5 -13 1 -17
-18 -17 -29 0 -30 3 -9 24 14 15 14 16 0 16 -9 0 -16 4 -16 9 0 5 9 7 20 4 11
-3 20 0 20 6 0 6 -13 11 -29 11 -29 0 -34 -11 -18 -37 5 -8 4 -13 -2 -13 -6 0
-11 -9 -11 -19 0 -11 -8 -22 -17 -24 -17 -4 -17 -5 0 -6 9 0 17 -8 17 -17 0
-19 51 -16 58 4 3 11 0 12 -18 2 -19 -10 -21 -9 -18 6 2 10 14 18 31 20 24 2
26 0 21 -22 -4 -14 -2 -24 4 -24 6 0 10 -9 9 -20 -1 -23 -17 -28 -17 -5 0 8
-4 15 -9 15 -9 0 -7 -43 4 -60 5 -8 1 -11 -11 -8 -11 2 -18 11 -17 22 1 12 -2
15 -9 8 -7 -7 -3 -21 13 -44 13 -18 23 -35 22 -38 -1 -3 0 -6 2 -8 1 -2 6 10
10 25 9 36 24 55 39 46 6 -4 4 2 -4 12 -8 10 -10 16 -3 12 8 -5 11 1 9 20 -2
16 0 38 5 50 5 13 4 25 -1 28 -6 4 -10 1 -10 -4 0 -6 -5 -11 -12 -11 -9 0 -9
3 0 12 14 14 16 42 2 33 -5 -3 -10 4 -10 15 0 16 4 20 16 16 9 -3 18 -6 20 -6
2 0 4 -9 4 -19 0 -11 4 -22 9 -26 6 -3 9 5 9 17 -4 66 3 119 14 112 7 -4 8 -3
4 4 -11 17 -15 15 -26 -14z"/>
<path d="M17875 3155 c79 -225 129 -397 161 -555 35 -180 -7 -856 -70 -1102
-22 -88 -66 -202 -131 -343 -12 -27 -28 -68 -35 -90 -7 -22 -16 -47 -20 -55
-15 -31 -59 -188 -95 -335 -42 -176 -68 -261 -103 -330 -20 -41 -67 -110 -92
-135 -3 -3 -50 -52 -105 -108 l-100 -102 368 0 367 0 0 24 c0 13 9 35 21 50
11 14 16 26 10 26 -11 0 -9 42 4 73 4 9 13 17 20 17 14 0 15 17 2 36 -4 7 -1
14 7 17 9 4 12 14 9 26 -3 12 -1 21 5 21 6 0 8 8 5 18 -2 10 4 40 15 67 17 44
31 106 37 169 1 10 9 22 17 27 15 9 33 90 30 134 -1 11 1 14 4 8 10 -23 25
-14 18 11 -3 13 -1 27 5 30 6 4 11 18 11 31 0 18 4 23 16 18 13 -5 14 1 9 36
-5 33 -2 47 14 68 25 31 27 53 5 53 -14 0 -14 3 -4 15 7 8 20 14 29 13 12 -2
17 8 22 42 7 49 -2 80 -11 40 -4 -15 -9 -20 -13 -13 -4 6 2 22 14 34 11 13 18
18 14 12 -3 -7 -1 -13 5 -13 7 0 9 7 6 16 -6 17 9 98 25 127 6 10 7 28 3 39
-4 14 -2 18 5 14 8 -5 8 0 1 20 -6 15 -7 31 -3 35 5 5 6 40 3 79 -3 39 -3 78
0 88 4 9 6 51 6 94 -1 44 3 74 8 70 6 -3 6 3 2 14 -4 10 -9 62 -11 114 -2 52
-6 115 -10 140 -3 25 -8 60 -11 79 -2 18 -7 37 -10 42 -3 5 -1 9 5 9 5 0 2 14
-6 31 -9 18 -16 45 -15 60 0 16 -3 29 -7 29 -5 0 -12 34 -16 75 -4 41 -11 73
-16 69 -5 -3 -9 2 -9 10 0 9 -4 16 -10 16 -5 0 -10 14 -10 31 0 37 -38 129
-54 129 -6 0 -4 5 4 10 12 7 12 12 2 22 -6 6 -12 21 -12 32 0 12 -11 34 -25
50 -27 31 -31 41 -14 30 8 -4 8 0 0 15 -7 11 -17 21 -22 21 -6 0 -9 7 -5 15 3
8 1 15 -4 15 -6 0 -10 13 -10 29 0 17 -4 33 -10 36 -5 3 -10 17 -10 29 0 14
-7 26 -17 29 -10 2 -29 26 -43 53 -14 27 -33 58 -42 68 -10 10 -15 22 -13 27
3 4 -2 15 -11 23 -9 9 -17 22 -18 29 -3 20 -32 57 -39 50 -4 -3 -7 -1 -7 6 0
7 -5 9 -12 5 -7 -4 -8 -3 -4 4 4 7 2 20 -3 29 -6 10 -11 14 -11 8 0 -5 -5 -3
-11 5 -9 12 -10 11 -4 -5z"/>
<path d="M6957 1403 c14 -68 9 -167 -12 -214 -43 -99 -171 -283 -246 -356
-123 -119 -487 -190 -659 -128 -66 23 -114 54 -225 144 -111 90 -185 132 -266
151 -30 7 -63 16 -75 20 -11 5 -27 4 -35 0 -11 -7 -10 -12 4 -28 26 -29 21
-38 -35 -55 -127 -39 -189 -49 -251 -43 -207 21 -211 20 -267 -10 -67 -37 -92
-82 -98 -184 -4 -65 0 -88 27 -170 37 -111 105 -242 164 -319 23 -29 79 -89
126 -132 l85 -79 1237 0 1238 0 20 26 c80 101 52 284 -58 394 -53 52 -61 57
-146 77 -159 39 -186 42 -445 56 -267 15 -323 25 -299 53 7 9 23 20 36 25 13
5 23 15 23 24 0 8 10 17 23 20 22 6 92 79 92 97 0 5 10 17 23 27 13 9 24 24
26 33 1 9 10 27 20 41 11 14 17 26 15 28 -2 2 11 25 28 50 44 64 57 170 31
269 -21 82 -64 177 -90 203 -19 19 -19 18 -11 -20z"/>
</g>
</svg>
