<?xml version="1.0" standalone="no"?>
<!DOCTYPE svg PUBLIC "-//W3C//DTD SVG 20010904//EN"
 "http://www.w3.org/TR/2001/REC-SVG-20010904/DTD/svg10.dtd">
<svg version="1.0" xmlns="http://www.w3.org/2000/svg"
 width="456.000000pt" height="456.000000pt" viewBox="0 0 456.000000 456.000000"
 preserveAspectRatio="xMidYMid meet">
<metadata>
Created by potrace 1.16, written by Peter Selinger 2001-2019
</metadata>
<g transform="translate(0.000000,456.000000) scale(0.100000,-0.100000)"
fill="#000000" stroke="none">
<path d="M2764 3235 c-12 -8 -43 -46 -69 -85 -27 -38 -52 -70 -57 -70 -12 0
-76 36 -117 65 -43 32 -75 32 -106 0 -47 -46 -33 -74 64 -126 42 -23 78 -43
79 -45 2 -1 -14 -26 -35 -56 -61 -82 -67 -95 -53 -128 13 -31 49 -60 74 -60 8
0 30 21 47 48 18 26 46 64 62 85 26 34 31 36 46 24 28 -26 151 -69 175 -63 14
3 31 21 41 41 15 33 15 38 1 60 -8 13 -44 42 -80 66 l-64 42 39 60 c48 74 53
105 22 140 -20 21 -42 22 -69 2z"/>
<path d="M1638 2743 c-9 -10 -26 -56 -38 -102 l-23 -83 -36 6 c-103 18 -156
19 -170 2 -17 -20 -18 -91 -2 -110 7 -9 40 -17 79 -21 106 -10 101 -6 85 -78
-21 -101 -18 -132 16 -156 17 -13 36 -18 46 -15 17 7 59 91 85 168 l12 38 88
-6 c48 -3 95 -3 104 0 21 8 38 71 26 94 -9 17 -60 39 -145 63 -22 6 -41 12
-42 12 -2 1 5 39 14 85 l16 83 -22 19 c-29 23 -73 23 -93 1z"/>
<path d="M2745 2124 c-11 -2 -45 -9 -75 -15 -121 -25 -403 -152 -483 -219 -67
-55 -142 -143 -220 -260 -108 -162 -130 -226 -89 -263 40 -37 98 -16 120 44
19 49 139 225 206 302 62 71 76 81 196 141 70 35 154 72 185 82 l57 18 33 -35
c22 -25 35 -51 39 -80 23 -150 42 -195 98 -229 71 -43 146 -14 195 75 30 55
35 114 20 236 l-8 66 73 -9 c40 -5 97 -13 126 -18 78 -14 112 6 112 66 0 47
-25 62 -136 80 -96 15 -409 28 -449 18z"/>
</g>
</svg>
